/* XPM */
static char * exit_xpm[] = {
"22 22 299 2",
"  	c None",
". 	c #80170A",
"+ 	c #7F2316",
"@ 	c #812518",
"# 	c #802418",
"$ 	c #802417",
"% 	c #802316",
"& 	c #7F2215",
"* 	c #7F2214",
"= 	c #7D2013",
"- 	c #81180C",
"; 	c #761207",
"> 	c #C23D29",
", 	c #D17D66",
"' 	c #DA9074",
") 	c #D88B6D",
"! 	c #D6896C",
"~ 	c #D6896A",
"{ 	c #D78969",
"] 	c #D7896A",
"^ 	c #D68968",
"/ 	c #D68866",
"( 	c #D58563",
"_ 	c #D48361",
": 	c #D3825F",
"< 	c #D3825E",
"[ 	c #D2815D",
"} 	c #C86949",
"| 	c #BF3721",
"1 	c #771409",
"2 	c #CC9177",
"3 	c #C57957",
"4 	c #BC603D",
"5 	c #BB603C",
"6 	c #BC643F",
"7 	c #BE6843",
"8 	c #BC653E",
"9 	c #BA603A",
"0 	c #BA6139",
"a 	c #BC663E",
"b 	c #C06F48",
"c 	c #C3744E",
"d 	c #C2754E",
"e 	c #C37750",
"f 	c #C47952",
"g 	c #C9875E",
"h 	c #C17A57",
"i 	c #BF3521",
"j 	c #B54925",
"k 	c #B95531",
"l 	c #BA5B36",
"m 	c #BA5A33",
"n 	c #B7542A",
"o 	c #C36C48",
"p 	c #D1886A",
"q 	c #D59477",
"r 	c #D18A6A",
"s 	c #C5724B",
"t 	c #BD653B",
"u 	c #C3714A",
"v 	c #C4754E",
"w 	c #C4764F",
"x 	c #C47750",
"y 	c #C56243",
"z 	c #BB5E39",
"A 	c #B95932",
"B 	c #C5714E",
"C 	c #E9C1B0",
"D 	c #F6E8E1",
"E 	c #FFFEFE",
"F 	c #FEFFFF",
"G 	c #FEFDFC",
"H 	c #F4E5DD",
"I 	c #E7BDA8",
"J 	c #C67953",
"K 	c #C3754D",
"L 	c #C67C55",
"M 	c #C67D56",
"N 	c #C68059",
"O 	c #CE7650",
"P 	c #7D1F11",
"Q 	c #B95931",
"R 	c #CC7F5E",
"S 	c #F8EBE5",
"T 	c #FFFFFF",
"U 	c #FFFBF9",
"V 	c #F2DFD6",
"W 	c #E7CBBD",
"X 	c #F4E5DE",
"Y 	c #CC8762",
"Z 	c #C57B53",
"` 	c #C7805A",
" .	c #C7835D",
"..	c #CE754F",
"+.	c #7E1F11",
"@.	c #C87655",
"#.	c #F7E9E3",
"$.	c #F2D9CD",
"%.	c #D28E6F",
"&.	c #C6734D",
"*.	c #C97C58",
"=.	c #C97A54",
"-.	c #D89E81",
";.	c #F7EBE3",
">.	c #F3E3D9",
",.	c #CA835D",
"'.	c #C7825B",
").	c #C8875F",
"!.	c #CD724D",
"~.	c #7E1E11",
"{.	c #BE6742",
"].	c #B8562D",
"^.	c #EAC9B9",
"/.	c #F1D5C9",
"(.	c #C46F48",
"_.	c #BB5F34",
":.	c #E2B39D",
"<.	c #D59B7F",
"[.	c #BD673C",
"}.	c #CF8C68",
"|.	c #F9F0E8",
"1.	c #E5BDA6",
"2.	c #C57E55",
"3.	c #C98A63",
"4.	c #CC714B",
"5.	c #7E1E10",
"6.	c #BB623C",
"7.	c #C97755",
"8.	c #FBEFEB",
"9.	c #FFFDFC",
"0.	c #CD8766",
"a.	c #BD653C",
"b.	c #C27048",
"c.	c #ECC6B3",
"d.	c #DEAD93",
"e.	c #C57A52",
"f.	c #C3754C",
"g.	c #DDA98D",
"h.	c #F4E5DC",
"i.	c #CC8B65",
"j.	c #C88962",
"k.	c #CC704A",
"l.	c #7E1D10",
"m.	c #D78A6A",
"n.	c #B95E37",
"o.	c #D49276",
"p.	c #EDD4C9",
"q.	c #BF663E",
"r.	c #C3744D",
"s.	c #C26F46",
"t.	c #EAC4B1",
"u.	c #DEAC93",
"v.	c #C57951",
"w.	c #C67E58",
"x.	c #CF8D68",
"y.	c #F9EEE8",
"z.	c #FFFAF7",
"A.	c #D79F7F",
"B.	c #C88861",
"C.	c #CC6F4A",
"D.	c #7D1D0F",
"E.	c #D68969",
"F.	c #BA5F36",
"G.	c #D59B82",
"H.	c #EACFC3",
"I.	c #BD6439",
"J.	c #C57750",
"K.	c #EBC5B3",
"L.	c #DEAF95",
"M.	c #C8835C",
"N.	c #CD8B65",
"O.	c #F5E9E2",
"P.	c #FFFCFA",
"Q.	c #D9A383",
"R.	c #C98B65",
"S.	c #CC6C48",
"T.	c #7D1C0F",
"U.	c #D68867",
"V.	c #BB643B",
"W.	c #D5977A",
"X.	c #EDD6CA",
"Y.	c #C16C43",
"Z.	c #C57852",
"`.	c #C3734B",
" +	c #EBC7B3",
".+	c #DFB097",
"++	c #C67E57",
"@+	c #C8855E",
"#+	c #D1926E",
"$+	c #F9EFE9",
"%+	c #FFFAF8",
"&+	c #DAA687",
"*+	c #CB8E6A",
"=+	c #CB6A46",
"-+	c #7D1C0E",
";+	c #D58664",
">+	c #BE6A42",
",+	c #CF8664",
"'+	c #FDF6F1",
")+	c #D08F6F",
"!+	c #C17047",
"~+	c #C67B53",
"{+	c #EDCAB8",
"]+	c #E0B39A",
"^+	c #C9855D",
"/+	c #C58057",
"(+	c #DDAD91",
"_+	c #F5E7DF",
":+	c #D39977",
"<+	c #CF9673",
"[+	c #CA6844",
"}+	c #7D1B0E",
"|+	c #C2744E",
"1+	c #BF683E",
"2+	c #EDD3C7",
"3+	c #F3DACD",
"4+	c #C87D55",
"5+	c #C17147",
"6+	c #E8C3AD",
"7+	c #DCAC91",
"8+	c #C37A4F",
"9+	c #D29976",
"0+	c #F9F0E9",
"a+	c #EDCFBC",
"b+	c #CF936F",
"c+	c #D19B7A",
"d+	c #C96643",
"e+	c #7D1B0D",
"f+	c #C3764F",
"g+	c #C16E46",
"h+	c #CE8967",
"i+	c #FCF2EE",
"j+	c #D29675",
"k+	c #CB8660",
"l+	c #D29572",
"m+	c #CD8B64",
"n+	c #D9A688",
"o+	c #F8EEE7",
"p+	c #F6E8E0",
"q+	c #D59C7B",
"r+	c #D49D7D",
"s+	c #D29B7C",
"t+	c #C86341",
"u+	c #7C1A0D",
"v+	c #C4754F",
"w+	c #C27249",
"x+	c #D99F81",
"y+	c #FDF5F1",
"z+	c #FCF7F4",
"A+	c #F1DED4",
"B+	c #EAD4C6",
"C+	c #F8EEE8",
"D+	c #D9A586",
"E+	c #D29978",
"F+	c #D5A183",
"G+	c #D39E80",
"H+	c #C86240",
"I+	c #7C1A0C",
"J+	c #C4784F",
"K+	c #D19270",
"L+	c #EDD0BF",
"M+	c #FAF1EC",
"N+	c #FEFEFE",
"O+	c #FFFFFE",
"P+	c #F9EFEA",
"Q+	c #EED0BE",
"R+	c #D6A07F",
"S+	c #D29A78",
"T+	c #D49F80",
"U+	c #D7A588",
"V+	c #D39E82",
"W+	c #C45737",
"X+	c #7B1A0D",
"Y+	c #C9875D",
"Z+	c #C8805A",
"`+	c #C67F58",
" @	c #C67E55",
".@	c #DDAE92",
"+@	c #DEB297",
"@@	c #E0B296",
"#@	c #D79F7E",
"$@	c #D39C7C",
"%@	c #DAAE94",
"&@	c #CE9072",
"*@	c #B93D21",
"=@	c #811A0E",
"-@	c #C7835C",
";@	c #C88760",
">@	c #C7865F",
",@	c #C7845D",
"'@	c #CA8B67",
")@	c #CE9571",
"!@	c #B45032",
"~@	c #BB2B16",
"{@	c #CC704B",
"]@	c #CC6D49",
"^@	c #CB6B47",
"/@	c #CA6944",
"(@	c #78170C",
"                                            ",
"        . + @ # $ $ $ % % % & & * = -       ",
"    ; > , ' ) ! ~ { ] ^ / ( _ : < [ } | 1   ",
"    > 2 3 4 5 6 7 8 9 0 a b c d e f g h i   ",
"  . , 3 j k l m n o p q r s t u v w x g y - ",
"  + ' 4 k z A B C D E F G H I J K L M N O P ",
"  @ ) 5 l Q R S T U V W X T T H Y Z `  ...+.",
"  # ! 6 A @.#.T $.%.&.*.=.-.;.T >.,.'.).!.~.",
"  $ ] {.].^.T /.(._.:.T <.[.}.|.T 1.2.3.4.5.",
"  $ ] 6.7.8.9.0.a.b.c.T d.e.f.g.T h.i.j.k.l.",
"  $ m.n.o.T p.q.r.s.t.T u.v.w.x.y.z.A.B.C.D.",
"  % E.F.G.T H.I.J.b.K.T L.Z M.N.O.P.Q.R.S.T.",
"  % U.V.W.T X.Y.Z.`. +T .+++@+#+$+%+&+*+=+-+",
"  % ;+>+,+'+9.)+!+~+{+T ]+^+/+(+T _+:+<+[+}+",
"  & _ |+1+2+T 3+4+5+6+T 7+8+9+0+T a+b+c+d+e+",
"  & : f+g+h+i+T $.j+k+l+m+n+o+T p+q+r+s+t+u+",
"  * < e v+w+x+y+T z+A+B+h.P.T C+D+E+F+G+H+I+",
"  = [ f w L J+K+L+M+T N+O+P+Q+R+S+T+U+V+W+X+",
"  - } Y+x M Z+`+ @l+.@+@@@#@b+$@F+U+%@&@*@=@",
"    | h g N -@;@3.>@,@B.'@)@c+s+G+V+&@!@~@  ",
"    1 i y O ..!.4.{@C.]@^@/@d+t+H+W+*@~@(@  ",
"        - P +.~.5.l.D.T.-+}+e+u+I+X+=@      "};
