/* XPM */
static char *oscada_qt_xpm[]={
"32 32 10 1",
"h c None",
". c None",
"a c #000000",
"c c #00ff00",
"f c #303030",
"# c #808080",
"g c #c0ffc0",
"b c #c3c3c3",
"d c #dcdcdc",
"e c #ffff00",
"................................",
"...........#########............",
"........####aaaaaaa####.........",
".......##aaaaaaaaaaaaa##........",
"......##aaaaaaaaaaaaaaa##.......",
"......#aaaaaaaaaaaaaaaaa##......",
"....##aaaaaaaaaaaaaaaaaaa##.....",
"...##abbbbbbbbbbbaaaaaaaaa##....",
"..##aabacacaacaabaaaaaaaaaa##...",
"..#aaabcccaccacabbbbbbaaaaaa#...",
"..#aaabacacaacaabaaaabaaaaaa#...",
".##aaabbbbbbbbbbbaaabbbaaaaa##..",
".#aaaaaaaaabaaaaaaabaaabaaaaa#..",
".#aaaaaaaaabaaaaaaabbbbbaaaaa#..",
".#aaaaaaaaabaaaaaabaabaabaaaa#..",
".#aaaaaaaaabaaaaaabbababbaaaa#..",
".#aaaaaaaabbbaaaaabdbbbdbaaaa#..",
".#aaeeeeeeeeeeeeeebdddddbeeaa#..",
".#aaaaaaaaaaaaaaafbdbfbdbfaaa#..",
".##aaaaaaaaaaaaaafbbfffbbfaa##..",
"..#aaaaaaaaaaaaaafbfffffbfaa#...",
"..#aaaaaaaaaaaaaafffffffffaa#...",
"..##agggggaaagggggggffffffa##...",
"...#ggaaaggaaaaagafffffffa##....",
"....g#aaaagaaaaagaafffffa##.....",
"....g##aaagaaaaagaaaaaaa##......",
"....g.##aagaaaaagaaaaaa##.......",
"....g..##agaaaaagaaaaa##........",
"....g...##g#aaaagaa####.........",
"....gh..ggg#####g###............",
"....ggh..gg.....g...............",
".....gggggggh...g..............."};
