/* XPM */
static char * back_xpm[] = {
"22 22 278 2",
"  	c None",
". 	c #0881EB",
"+ 	c #1E9DFF",
"@ 	c #28A3FF",
"# 	c #2AA8FF",
"$ 	c #27A6FF",
"% 	c #1D9DFF",
"& 	c #0B8CFD",
"* 	c #0063B8",
"= 	c #1290FF",
"- 	c #5DC9FF",
"; 	c #74CDFF",
"> 	c #62BCFF",
", 	c #51B0FF",
"' 	c #4CACFF",
") 	c #4AABFF",
"! 	c #48AAFF",
"~ 	c #3BA5FF",
"{ 	c #28A2FF",
"] 	c #0C93FF",
"^ 	c #005BA7",
"/ 	c #52C5FF",
"( 	c #D6FFFF",
"_ 	c #C1FFFF",
": 	c #7DCEFF",
"< 	c #5AB8FF",
"[ 	c #54B3FF",
"} 	c #53B2FF",
"| 	c #51B3FF",
"1 	c #44ACFF",
"2 	c #52B2FF",
"3 	c #7DBDFF",
"4 	c #3E9BFF",
"5 	c #1695FF",
"6 	c #0075D6",
"7 	c #59CAFF",
"8 	c #FFFFFF",
"9 	c #77CEFF",
"0 	c #55B4FF",
"a 	c #55B8FF",
"b 	c #52B7FF",
"c 	c #44B2FF",
"d 	c #75C7FF",
"e 	c #DDEBF5",
"f 	c #6BA0CE",
"g 	c #47A5FF",
"h 	c #46A3FF",
"i 	c #1C93FF",
"j 	c #006CC7",
"k 	c #199AFF",
"l 	c #EAFFFF",
"m 	c #6CC7FF",
"n 	c #4EB0FF",
"o 	c #4FB3FF",
"p 	c #52B8FF",
"q 	c #49B6FF",
"r 	c #55BDFE",
"s 	c #B4E3FF",
"t 	c #9CAEBB",
"u 	c #429FE3",
"v 	c #60BBFF",
"w 	c #58AFFF",
"x 	c #46A0FF",
"y 	c #0B89F5",
"z 	c #004682",
"A 	c #81E5FF",
"B 	c #F6FFFF",
"C 	c #82D4FF",
"D 	c #4BADFF",
"E 	c #47AFFF",
"F 	c #45B2FF",
"G 	c #4AB7FE",
"H 	c #89D3FE",
"I 	c #EEF9FF",
"J 	c #E9E3DE",
"K 	c #4190C0",
"L 	c #68C8FF",
"M 	c #69C0FF",
"N 	c #60B6FF",
"O 	c #56AAFF",
"P 	c #2D91F7",
"Q 	c #0070CD",
"R 	c #0B84F1",
"S 	c #A8F3FF",
"T 	c #99E5FF",
"U 	c #47ACFF",
"V 	c #33A4FF",
"W 	c #3CAEFE",
"X 	c #7AC9FD",
"Y 	c #DCF0FE",
"Z 	c #679AB4",
"` 	c #52BEF7",
" .	c #64CCFF",
"..	c #60C1FF",
"+.	c #61BBFF",
"@.	c #5CB2FF",
"#.	c #489EFF",
"$.	c #0C80E6",
"%.	c #003360",
"&.	c #25A0FF",
"*.	c #78CCFF",
"=.	c #43ADFF",
"-.	c #39A4FE",
";.	c #7EC7FD",
">.	c #D7EEFE",
",.	c #C4CFD4",
"'.	c #3FA0CF",
").	c #C8F3FF",
"!.	c #C5EBFD",
"~.	c #94D2F8",
"{.	c #6BBFFB",
"].	c #57B1FF",
"^.	c #3E9AFF",
"/.	c #1581EA",
"(.	c #005299",
"_.	c #34A9FF",
":.	c #6FC0FF",
"<.	c #9FD4FF",
"[.	c #F0F8FE",
"}.	c #FFFEFA",
"|.	c #5292B0",
"1.	c #84D5FA",
"2.	c #FFFFFE",
"3.	c #EDF5FD",
"4.	c #C6E1FF",
"5.	c #4C98E7",
"6.	c #0059AF",
"7.	c #7BC7FF",
"8.	c #FFFDF7",
"9.	c #EFEEEE",
"0.	c #3596C0",
"a.	c #BCF0FF",
"b.	c #759EC9",
"c.	c #0052AC",
"d.	c #1E98FF",
"e.	c #3888D9",
"f.	c #97BADA",
"g.	c #F7F4F0",
"h.	c #6BB3D3",
"i.	c #94DAF9",
"j.	c #5384B9",
"k.	c #0057AD",
"l.	c #249EFF",
"m.	c #319EFF",
"n.	c #2793F8",
"o.	c #3B96E2",
"p.	c #84B5DC",
"q.	c #DAE3E9",
"r.	c #D3E3EA",
"s.	c #55B7E4",
"t.	c #FCFFFF",
"u.	c #FFFFFA",
"v.	c #F4F0EC",
"w.	c #D4DADF",
"x.	c #AEBED1",
"y.	c #286FB7",
"z.	c #0058A7",
"A.	c #1B90FD",
"B.	c #3AA1FF",
"C.	c #42A6FF",
"D.	c #46ABFF",
"E.	c #3CA7FB",
"F.	c #42A3E9",
"G.	c #7EB6DB",
"H.	c #E0E5EA",
"I.	c #7BBEDF",
"J.	c #7FC8EF",
"K.	c #90B6C8",
"L.	c #649DC2",
"M.	c #5096CD",
"N.	c #4B94DF",
"O.	c #3686E5",
"P.	c #1E79D4",
"Q.	c #004784",
"R.	c #0A6BBC",
"S.	c #37A3FF",
"T.	c #43A2FF",
"U.	c #4CA9FF",
"V.	c #55B2FF",
"W.	c #58B8FF",
"X.	c #51B5FE",
"Y.	c #4FACE9",
"Z.	c #8CBEDD",
"`.	c #F0F1EF",
" +	c #F6F4F2",
".+	c #54B2E9",
"++	c #5FC0FC",
"@+	c #6AC2FF",
"#+	c #6EC0FF",
"$+	c #65B4FF",
"%+	c #4896F0",
"&+	c #1472C8",
"*+	c #002646",
"=+	c #249BFF",
"-+	c #409FFF",
";+	c #49A4FF",
">+	c #52ABFF",
",+	c #5AB1FF",
"'+	c #61BAFF",
")+	c #64C0FF",
"!+	c #56B9FD",
"~+	c #5BAEE6",
"{+	c #9FC6E1",
"]+	c #FFFFF8",
"^+	c #C0D9E8",
"/+	c #5DB7FE",
"(+	c #70C0FF",
"_+	c #6AB3FF",
":+	c #59A3F9",
"<+	c #2F7ED2",
"[+	c #0457A0",
"}+	c #0762AF",
"|+	c #34A0FF",
"1+	c #439EFF",
"2+	c #4DA4FF",
"3+	c #55ABFF",
"4+	c #5DB2FF",
"5+	c #63B9FF",
"6+	c #6ABFFF",
"7+	c #67C0FF",
"8+	c #55B4FA",
"9+	c #68AEE4",
"0+	c #DADFE3",
"a+	c #8ABBEB",
"b+	c #5EAEFF",
"c+	c #5EA5FC",
"d+	c #418BDE",
"e+	c #116CC0",
"f+	c #002645",
"g+	c #1281E2",
"h+	c #3A9FFF",
"i+	c #479FFF",
"j+	c #4DA3FF",
"k+	c #5EB0FF",
"l+	c #64B5FF",
"m+	c #67B8FF",
"n+	c #69B9FF",
"o+	c #5FB5FF",
"p+	c #62A9F3",
"q+	c #8BB4E5",
"r+	c #5C9FF1",
"s+	c #428EE1",
"t+	c #1B75CA",
"u+	c #00467E",
"v+	c #1179D3",
"w+	c #329BFF",
"x+	c #439BFC",
"y+	c #4CA0FD",
"z+	c #54A5FF",
"A+	c #59A9FF",
"B+	c #5FABFF",
"C+	c #60ACFF",
"D+	c #61ABFF",
"E+	c #5BA6FF",
"F+	c #4E96EB",
"G+	c #3782D2",
"H+	c #106FC4",
"I+	c #00457F",
"J+	c #004E8F",
"K+	c #1680DF",
"L+	c #2F93F7",
"M+	c #3E96F5",
"N+	c #4798F4",
"O+	c #4C9AF4",
"P+	c #4C9AF1",
"Q+	c #4694EA",
"R+	c #3689DF",
"S+	c #1A77CF",
"T+	c #0359A4",
"U+	c #002547",
"V+	c #003969",
"W+	c #055DA6",
"X+	c #0C6DC0",
"Y+	c #0E6DC1",
"Z+	c #0C6BBB",
"`+	c #0561AE",
" @	c #004888",
".@	c #002548",
"                                            ",
"              . + @ # $ % & *               ",
"          = - ; > , ' ) ! ~ { ] ^           ",
"        / ( _ : < [ } | 1 2 3 4 5 6         ",
"      7 8 ( 9 0 | a b c d e f g h i j       ",
"    k 8 l m n o p q r s 8 t u v w x y z     ",
"    A B C D E F G H I 8 J K L M N O P Q     ",
"  R S T U V W X Y 8 8 8 Z `  ...+.@.#.$.%.  ",
"  &.*.=.-.;.>.8 8 8 8 ,.'.).!.~.{.].^./.(.  ",
"  _.:.<.[.8 8 8 8 8 }.|.1.8 8 2.2.3.4.5.6.  ",
"  7.8.8 8 8 8 8 8 8 9.0.a.8 8 8 8 8 8 b.c.  ",
"  d.e.f.g.8 8 8 8 8 2.h.i.8 8 8 8 8 8 j.k.  ",
"  l.m.n.o.p.q.2.8 8 8 r.s.t.8 u.v.w.x.y.z.  ",
"  A.B.C.D.E.F.G.H.8 8 8 I.J.K.L.M.N.O.P.Q.  ",
"  R.S.T.U.V.W.X.Y.Z.`.8  +.+++@+#+$+%+&+*+  ",
"    =+-+;+>+,+'+)+!+~+{+]+^+/+(+_+:+<+[+    ",
"    }+|+1+2+3+4+5+6+7+8+9+0+a+b+c+d+e+f+    ",
"      g+h+i+j+O k+l+m+n+o+p+q+r+s+t+u+      ",
"        v+w+x+y+z+A+B+C+D+E+F+G+H+I+        ",
"          J+K+L+M+N+O+P+Q+R+S+T+U+          ",
"              V+W+X+Y+Z+`+ @.@              ",
"                                            "};
