/* XPM */
static char * button_ok_xpm[] = {
"22 22 73 1",
" 	c None",
".	c #13AC00",
"+	c #18AF00",
"@	c #01A100",
"#	c #00A100",
"$	c #03A200",
"%	c #009B00",
"&	c #009A00",
"*	c #0AA20A",
"=	c #009C00",
"-	c #009500",
";	c #17A917",
">	c #009400",
",	c #089C08",
"'	c #40CB40",
")	c #2EB62E",
"!	c #17AA17",
"~	c #36D536",
"{	c #008E00",
"]	c #008D00",
"^	c #059505",
"/	c #29C729",
"(	c #50F150",
"_	c #14A314",
":	c #008F00",
"<	c #008800",
"[	c #2BF72B",
"}	c #18D318",
"|	c #008700",
"1	c #028F02",
"2	c #11C411",
"3	c #28F828",
"4	c #0B9E0B",
"5	c #008900",
"6	c #008200",
"7	c #03D703",
"8	c #05FE05",
"9	c #01CF01",
"0	c #008100",
"a	c #008000",
"b	c #00C000",
"c	c #04F604",
"d	c #05E605",
"e	c #018901",
"f	c #00A900",
"g	c #00F600",
"h	c #00C700",
"i	c #007B00",
"j	c #00B800",
"k	c #00EE00",
"l	c #00DF00",
"m	c #008300",
"n	c #007C00",
"o	c #00EC00",
"p	c #00D600",
"q	c #00E500",
"r	c #006E00",
"s	c #00CD00",
"t	c #00E300",
"u	c #006800",
"v	c #00DA00",
"w	c #007600",
"x	c #00D100",
"y	c #008B00",
"z	c #006200",
"A	c #005C00",
"B	c #00BB00",
"C	c #00C800",
"D	c #00C100",
"E	c #007700",
"F	c #005B00",
"G	c #00B900",
"H	c #006D00",
"                      ",
"                      ",
"                      ",
"                    .+",
"@                 #$$ ",
"%%              &*%=  ",
"-;-           >,')-   ",
" !~{        ]^/(_:    ",
" <[}<     |123[45     ",
" 67890  a5bc8de6      ",
"  fgghi6jkgglm        ",
"  nooopqooobn         ",
"  rsttttttjr          ",
"  u#vvvvv&u           ",
"   wxxxxyz            ",
"   ABCDEA             ",
"   F&GrF              ",
"    HHF               ",
"    F                 ",
"                      ",
"                      ",
"                      "};
