/* XPM */
static char * button_cancel_xpm[] = {
"22 22 60 1",
" 	c None",
".	c #E84300",
"+	c #E63F00",
"@	c #D11E00",
"#	c #D11B00",
"$	c #F69D50",
"%	c #F59A4D",
"&	c #E23800",
"*	c #EE5F1F",
"=	c #ED5A1D",
"-	c #CD1700",
";	c #FECBA2",
">	c #FEC69A",
",	c #F39045",
"'	c #DE3200",
")	c #FE7B3C",
"!	c #FE7234",
"~	c #EC4C15",
"{	c #CC1100",
"]	c #FEC091",
"^	c #FEBA89",
"/	c #F2873D",
"(	c #DA2C00",
"_	c #FE692C",
":	c #EB4712",
"<	c #CA0F00",
"[	c #FEB480",
"}	c #FEAE78",
"|	c #F07D35",
"1	c #D62600",
"2	c #FEA870",
"3	c #FEA166",
"4	c #EF722D",
"5	c #D32100",
"6	c #FE9B5F",
"7	c #FE9356",
"8	c #F16C2A",
"9	c #F16525",
"0	c #FE8B4D",
"a	c #FE8445",
"b	c #EE4B15",
"c	c #FE6025",
"d	c #EE4310",
"e	c #C90E00",
"f	c #FE561D",
"g	c #FE4B16",
"h	c #EA2F08",
"i	c #C70900",
"j	c #FE4010",
"k	c #FE350B",
"l	c #EA1D03",
"m	c #C60700",
"n	c #FE2906",
"o	c #FE1A02",
"p	c #E90900",
"q	c #C50300",
"r	c #FE0A00",
"s	c #FE0000",
"t	c #E90000",
"u	c #C40000",
"                      ",
"                      ",
"    .+          @#    ",
"   .$%&        @*=-   ",
"  .$;>,'      @*)!~{  ",
"  +%>]^/(    @*)!_:<  ",
"   &,^[}|1  @*)!_:<   ",
"    '/}2345@*)!_:<    ",
"     (|36789)!_:<     ",
"      1470a)!_:<      ",
"       58a)!_b<       ",
"       @9)!_cde       ",
"      @*)!_cfghi      ",
"     @*)!_bdgjklm     ",
"    @*)!_:<ehknopq    ",
"   @*)!_:<  ilorstu   ",
"  @*)!_:<    mpssstu  ",
"  #=!_:<      qtsstu  ",
"   -~:<        uttu   ",
"    {<          uu    ",
"                      ",
"                      "};
