/* XPM */
static char * contexthelp_xpm[] = {
"22 22 98 2",
"  	c None",
". 	c #080808",
"+ 	c #0E0E0E",
"@ 	c #242424",
"# 	c #4B4B4B",
"$ 	c #5D5D5D",
"% 	c #6D6D6D",
"& 	c #616161",
"* 	c #636363",
"= 	c #5E5E5E",
"- 	c #262626",
"; 	c #000000",
"> 	c #292929",
", 	c #7C7C7C",
"' 	c #707070",
") 	c #808080",
"! 	c #202020",
"~ 	c #070707",
"{ 	c #535353",
"] 	c #818181",
"^ 	c #393939",
"/ 	c #181818",
"( 	c #555555",
"_ 	c #5F5F5F",
": 	c #8B8B8B",
"< 	c #0C0C0C",
"[ 	c #676767",
"} 	c #868686",
"| 	c #1C1C1C",
"1 	c #3C3C3C",
"2 	c #2A2A2A",
"3 	c #0F0F0F",
"4 	c #141414",
"5 	c #585858",
"6 	c #929292",
"7 	c #3E3E3E",
"8 	c #3B3B3B",
"9 	c #595959",
"0 	c #2E2E2E",
"a 	c #9F9F9F",
"b 	c #8F8F8F",
"c 	c #383838",
"d 	c #545454",
"e 	c #666666",
"f 	c #353535",
"g 	c #A1A1A1",
"h 	c #B0B0B0",
"i 	c #737373",
"j 	c #090909",
"k 	c #656565",
"l 	c #7D7D7D",
"m 	c #AFAFAF",
"n 	c #7B7B7B",
"o 	c #0D0D0D",
"p 	c #646464",
"q 	c #767676",
"r 	c #4D4D4D",
"s 	c #C3C3C3",
"t 	c #A2A2A2",
"u 	c #727272",
"v 	c #060606",
"w 	c #3F3F3F",
"x 	c #5B5B5B",
"y 	c #747474",
"z 	c #8A8A8A",
"A 	c #A7A7A7",
"B 	c #6B6B6B",
"C 	c #050505",
"D 	c #9B9B9B",
"E 	c #9A9A9A",
"F 	c #757575",
"G 	c #404040",
"H 	c #6F6F6F",
"I 	c #828282",
"J 	c #606060",
"K 	c #313131",
"L 	c #1A1A1A",
"M 	c #989898",
"N 	c #2D2D2D",
"O 	c #6E6E6E",
"P 	c #8E8E8E",
"Q 	c #252525",
"R 	c #232323",
"S 	c #212121",
"T 	c #020202",
"U 	c #474747",
"V 	c #161616",
"W 	c #040404",
"X 	c #6C6C6C",
"Y 	c #171717",
"Z 	c #272727",
"` 	c #949494",
" .	c #101010",
"..	c #777777",
"+.	c #494949",
"@.	c #333333",
"#.	c #686868",
"$.	c #1D1D1D",
"                            . + .           ",
"                      @ # $ % & * = -       ",
"    ;               > , ' ) ! ; ~ { ] ^ ;   ",
"    / ;             ( _ : <         [ } |   ",
"    1 2 ;           ~ 3 4           5 6 7   ",
"    8 9 0 ;                         a b c   ",
"    ^ d e f                       g h i j   ",
"    1 d k l 7 ;               8 m m n o     ",
"    7 5 p q : d ;           r s t u v       ",
"    w x e y z A B C         D E F ;         ",
"    G x H I F J 5 K ;     L 6 M N           ",
"    8 O P z Q       ;       R S T           ",
"    5 : C U O ;                             ",
"    r o     6 @           V J _ 3           ",
"    W       X H           Y q O o           ",
"            Z `  .          3 + ;           ",
"              ..+.                          ",
"              @.n ;                         ",
"                #.$.                        ",
"                o ;                         ",
"                                            ",
"                                            "};
