/* XPM */
static char * exit_xpm[] = {
"22 22 282 2",
"  	c None",
". 	c #C40606",
"+ 	c #EA1515",
"@ 	c #F61F1F",
"# 	c #F82828",
"$ 	c #F52626",
"% 	c #E91D1D",
"& 	c #D30B0B",
"* 	c #990000",
"= 	c #DE1212",
"- 	c #FF5858",
"; 	c #FF5F5F",
"> 	c #F55F5F",
", 	c #DE5656",
"' 	c #EF3939",
") 	c #F54545",
"! 	c #F04848",
"~ 	c #EE4141",
"{ 	c #EB2D2D",
"] 	c #DB0B0B",
"^ 	c #8D0000",
"/ 	c #FF5050",
"( 	c #FFD0D0",
"_ 	c #FFA5A5",
": 	c #F39191",
"< 	c #F9FFFF",
"[ 	c #E6FFFF",
"} 	c #B87474",
"| 	c #EC3636",
"1 	c #FD4D4D",
"2 	c #F35353",
"3 	c #EB4E4E",
"4 	c #E43E3E",
"5 	c #DE1717",
"6 	c #B50000",
"7 	c #FFFFFF",
"8 	c #FFB7B7",
"9 	c #EB9C9C",
"0 	c #F7FFFF",
"a 	c #B28D8D",
"b 	c #ED4747",
"c 	c #FF5757",
"d 	c #F75A5A",
"e 	c #ED5454",
"f 	c #E14646",
"g 	c #D91C1C",
"h 	c #A70000",
"i 	c #E51818",
"j 	c #FFFBFB",
"k 	c #FFCBCB",
"l 	c #E6AEAE",
"m 	c #FCFFFF",
"n 	c #FEFFFF",
"o 	c #F1FFFF",
"p 	c #AF9494",
"q 	c #F14F4F",
"r 	c #FF6363",
"s 	c #F95F5F",
"t 	c #ED5858",
"u 	c #DE4545",
"v 	c #CE0B0B",
"w 	c #6E0000",
"x 	c #FF7B7B",
"y 	c #FFE2E2",
"z 	c #EBC7C7",
"A 	c #CEABAB",
"B 	c #9F3C3C",
"C 	c #E4E5E5",
"D 	c #E7FFFF",
"E 	c #B89191",
"F 	c #F95E5E",
"G 	c #FF6969",
"H 	c #F56161",
"I 	c #E85757",
"J 	c #D22D2D",
"K 	c #AD0000",
"L 	c #CC0B0B",
"M 	c #FF9999",
"N 	c #E3C1C1",
"O 	c #FDFFFF",
"P 	c #EAECEC",
"Q 	c #A02626",
"R 	c #E29F9F",
"S 	c #BFC5C5",
"T 	c #DB5757",
"U 	c #FF7272",
"V 	c #FF6A6A",
"W 	c #F06262",
"X 	c #DC4A4A",
"Y 	c #C30D0D",
"Z 	c #500000",
"` 	c #EE2B2B",
" .	c #FF7676",
"..	c #C38787",
"+.	c #F2FFFF",
"@.	c #F4F3F3",
"#.	c #DAD7D7",
"$.	c #AE5959",
"%.	c #F96F6F",
"&.	c #FF7A7A",
"*.	c #F76A6A",
"=.	c #E35858",
"-.	c #C62323",
";.	c #7E0000",
">.	c #F43232",
",.	c #FE5959",
"'.	c #DD3A3A",
").	c #BBB9B9",
"!.	c #C8D3D3",
"~.	c #834D4D",
"{.	c #F85E5E",
"].	c #FF8383",
"^.	c #FF7C7C",
"/.	c #FF7575",
"(.	c #FB6E6E",
"_.	c #E75E5E",
":.	c #C93232",
"<.	c #940000",
"[.	c #F33030",
"}.	c #EC4A4A",
"|.	c #F63B3B",
"1.	c #C64747",
"2.	c #CBE2E2",
"3.	c #A9B2B2",
"4.	c #8B9595",
"5.	c #E2ECEC",
"6.	c #DB7C7C",
"7.	c #FF7878",
"8.	c #FF7F7F",
"9.	c #FC7171",
"0.	c #E86262",
"a.	c #C93838",
"b.	c #960505",
"c.	c #F02C2C",
"d.	c #E74242",
"e.	c #F04747",
"f.	c #F83A3A",
"g.	c #A77070",
"h.	c #DBFCFC",
"i.	c #A38585",
"j.	c #979191",
"k.	c #E3F5F5",
"l.	c #EBFFFF",
"m.	c #D0BCBC",
"n.	c #F06060",
"o.	c #FD7272",
"p.	c #E76262",
"q.	c #C73A3A",
"r.	c #930606",
"s.	c #E62727",
"t.	c #E43F3F",
"u.	c #EA4848",
"v.	c #FB4D4D",
"w.	c #ED4242",
"x.	c #AE9696",
"y.	c #DFFFFF",
"z.	c #B08A8A",
"A.	c #CC3F3F",
"B.	c #DB6868",
"C.	c #D7E0E0",
"D.	c #DDF7F7",
"E.	c #C6D6D6",
"F.	c #DA7676",
"G.	c #FF7070",
"H.	c #F97070",
"I.	c #E36161",
"J.	c #BF3232",
"K.	c #8A0404",
"L.	c #D71C1C",
"M.	c #E53B3B",
"N.	c #E64545",
"O.	c #EF4E4E",
"P.	c #FF5454",
"Q.	c #EE5353",
"R.	c #C05151",
"S.	c #DD4D4D",
"T.	c #DC6969",
"U.	c #C8B8B8",
"V.	c #B4D4D4",
"W.	c #CDD7D7",
"X.	c #E07A7A",
"Y.	c #F66D6D",
"Z.	c #DA5858",
"`.	c #B52727",
" +	c #6D0000",
".+	c #A00A0A",
"++	c #EB3737",
"@+	c #E24343",
"#+	c #E94D4D",
"$+	c #F25656",
"%+	c #FE5D5D",
"&+	c #FF6262",
"*+	c #FF6D6D",
"=+	c #FF7171",
"-+	c #E96060",
";+	c #BAB1B1",
">+	c #AACACA",
",+	c #BED0D0",
"'+	c #CD5A5A",
")+	c #F16464",
"!+	c #CD4949",
"~+	c #A81515",
"{+	c #3A0000",
"]+	c #E32424",
"^+	c #DF4040",
"/+	c #E34949",
"(+	c #EA5252",
"_+	c #F15B5B",
":+	c #FB6363",
"<+	c #FF6F6F",
"[+	c #FF7474",
"}+	c #DA6C6C",
"|+	c #9FB9B9",
"1+	c #A8C9C9",
"2+	c #9E8C8C",
"3+	c #C94848",
"4+	c #BC2F2F",
"5+	c #870404",
"6+	c #950707",
"7+	c #E83434",
"8+	c #DE4343",
"9+	c #E24D4D",
"0+	c #E85555",
"a+	c #EF5D5D",
"b+	c #F56464",
"c+	c #FB6A6A",
"d+	c #FD6E6E",
"e+	c #FF6666",
"f+	c #AD7676",
"g+	c #92B6B6",
"h+	c #86A7A7",
"i+	c #993131",
"j+	c #AD1111",
"k+	c #C11212",
"l+	c #E23A3A",
"m+	c #DD4747",
"n+	c #E04D4D",
"o+	c #E65656",
"p+	c #EC5E5E",
"q+	c #F06464",
"r+	c #F26868",
"s+	c #F46A6A",
"t+	c #F36B6B",
"u+	c #F76969",
"v+	c #E35C5C",
"w+	c #A24F4F",
"x+	c #835252",
"y+	c #961919",
"z+	c #700000",
"A+	c #B51111",
"B+	c #DF3232",
"C+	c #D94343",
"D+	c #DB4C4C",
"E+	c #DE5454",
"F+	c #E35959",
"G+	c #E45F5F",
"H+	c #E46060",
"I+	c #E16161",
"J+	c #DC5F5F",
"K+	c #D55454",
"L+	c #C43434",
"M+	c #AB0909",
"N+	c #780000",
"O+	c #BD1616",
"P+	c #D32F2F",
"Q+	c #D33E3E",
"R+	c #D24747",
"S+	c #D34C4C",
"T+	c #D24C4C",
"U+	c #CA4646",
"V+	c #BF3636",
"W+	c #AF1B1B",
"X+	c #8B0303",
"Y+	c #3E0000",
"Z+	c #590000",
"`+	c #8D0505",
" @	c #A30C0C",
".@	c #A40E0E",
"+@	c #9F0C0C",
"@@	c #930505",
"#@	c #720000",
"$@	c #3D0000",
"                                            ",
"              . + @ # $ % & *               ",
"          = - ; > , ' ) ! ~ { ] ^           ",
"        / ( _ : < [ } | 1 2 3 4 5 6         ",
"      - 7 8 9 0 7 7 [ a b c d e f g h       ",
"    i j k l m 7 n 7 7 o p q r s t u v w     ",
"    x y z n 7 A B C 7 7 D E F G H I J K     ",
"  L M N O 7 P Q R 7 7 7 7 S T U V W X Y Z   ",
"  `  ...+.7 O @.7 7 7 7 #.$.%.&.U *.=.-.;.  ",
"  >.,.'.).7 7 7 7 7 7 !.~.{.].^./.(._.:.<.  ",
"  [.}.|.1.2.7 7 7 7 3.4.5.6.7.8.7.9.0.a.b.  ",
"  c.d.e.f.g.h.7 7 i.j.k.l.m.n.8.7.o.p.q.r.  ",
"  s.t.u.v.w.x.y.z.A.B.C.D.E.F.G.7.H.I.J.K.  ",
"  L.M.N.O.P.Q.R.S.U G.T.U.V.W.X.V Y.Z.`. +  ",
"  .+++@+#+$+%+&+*+=+ .=+-+;+>+,+'+)+!+~+{+  ",
"    ]+^+/+(+_+:+V <+=+[+<+}+|+1+2+3+4+5+    ",
"    6+7+8+9+0+a+b+c+d+G.G.e+f+g+h+i+j+{+    ",
"      k+l+m+n+o+p+q+r+s+t+u+v+w+x+y+z+      ",
"        A+B+C+D+E+F+G+H+I+J+K+L+M+ +        ",
"          N+O+P+Q+R+S+T+U+V+W+X+Y+          ",
"              Z+`+ @.@+@@@#@$@              ",
"                                            "};
