/* XPM */
static char * identity_xpm[] = {
"22 22 215 2",
"  	c None",
". 	c #000000",
"+ 	c #040404",
"@ 	c #212121",
"# 	c #2B2B2B",
"$ 	c #111011",
"% 	c #1B1718",
"& 	c #1E1F20",
"* 	c #080809",
"= 	c #010101",
"- 	c #0E0E0E",
"; 	c #3D3D3E",
"> 	c #3B3E3E",
", 	c #4E3F33",
"' 	c #212222",
") 	c #414448",
"! 	c #313031",
"~ 	c #020202",
"{ 	c #050505",
"] 	c #141515",
"^ 	c #0D0D0D",
"/ 	c #4E4B45",
"( 	c #5D5144",
"_ 	c #0E0700",
": 	c #0D0F14",
"< 	c #4C4D4E",
"[ 	c #4E392E",
"} 	c #BB8C6E",
"| 	c #A38A79",
"1 	c #929492",
"2 	c #FDECD6",
"3 	c #453A2C",
"4 	c #151B1E",
"5 	c #353637",
"6 	c #000102",
"7 	c #1C1410",
"8 	c #FFE7BB",
"9 	c #FFEDC0",
"0 	c #FFDEAF",
"a 	c #FFE4C3",
"b 	c #FFFFFF",
"c 	c #EFD7BB",
"d 	c #291E18",
"e 	c #161C1F",
"f 	c #060707",
"g 	c #010203",
"h 	c #B08970",
"i 	c #FFE9BE",
"j 	c #FFCDA6",
"k 	c #FFC8A0",
"l 	c #FFC69C",
"m 	c #FFD2A5",
"n 	c #E7BE9E",
"o 	c #CCA084",
"p 	c #272424",
"q 	c #191D20",
"r 	c #060708",
"s 	c #241C17",
"t 	c #FFEABE",
"u 	c #FFE1B6",
"v 	c #FFD3A9",
"w 	c #FFCBA3",
"x 	c #FFCAA1",
"y 	c #C6A38A",
"z 	c #FFE4B8",
"A 	c #725C4F",
"B 	c #465156",
"C 	c #0C0E0E",
"D 	c #5B3E2F",
"E 	c #F9BB96",
"F 	c #D4A689",
"G 	c #BD8D6D",
"H 	c #E8B38C",
"I 	c #FFCDA4",
"J 	c #FFD0A8",
"K 	c #FFCCA4",
"L 	c #C09677",
"M 	c #FFC296",
"N 	c #B2806C",
"O 	c #29343B",
"P 	c #8C604B",
"Q 	c #FFF4DB",
"R 	c #4A4B48",
"S 	c #2B1913",
"T 	c #FFCA9F",
"U 	c #E6AB8C",
"V 	c #CA755C",
"W 	c #A75545",
"X 	c #62382D",
"Y 	c #BB8B6D",
"Z 	c #FFDBAE",
"` 	c #ECBD95",
" .	c #794E3D",
"..	c #B86859",
"+.	c #A2513E",
"@.	c #C97951",
"#.	c #FFCE97",
"$.	c #BF9C80",
"%.	c #53413B",
"&.	c #FFC19A",
"*.	c #FFBA93",
"=.	c #F2C7B9",
"-.	c #AAAFCD",
";.	c #E28F7C",
">.	c #F8865D",
",.	c #FFBD9B",
"'.	c #FFB482",
").	c #B67F73",
"!.	c #96B7DE",
"~.	c #DA9885",
"{.	c #FFA973",
"].	c #FD9F78",
"^.	c #493532",
"/.	c #FAAC89",
"(.	c #FFCA9C",
"_.	c #F1D1B2",
":.	c #AABBBF",
"<.	c #EAB28F",
"[.	c #FF8E62",
"}.	c #FEBE99",
"|.	c #FFB985",
"1.	c #C09880",
"2.	c #D1C3B8",
"3.	c #F6B493",
"4.	c #FFC99C",
"5.	c #FFB891",
"6.	c #975C4F",
"7.	c #F69677",
"8.	c #FFB890",
"9.	c #FFC99D",
"0.	c #FFD1A0",
"a.	c #FFC18E",
"b.	c #FFB083",
"c.	c #FFCFA7",
"d.	c #F5C29B",
"e.	c #D8AD8B",
"f.	c #FFDDAE",
"g.	c #D69476",
"h.	c #000101",
"i.	c #AA836F",
"j.	c #E5A38B",
"k.	c #9F6053",
"l.	c #FF9B78",
"m.	c #FFAE85",
"n.	c #FEC095",
"o.	c #FEC89E",
"p.	c #FEC89B",
"q.	c #FBB790",
"r.	c #FFBC98",
"s.	c #F5C4A8",
"t.	c #EDBB9A",
"u.	c #FFD5AC",
"v.	c #9C6550",
"w.	c #02080A",
"x.	c #121F22",
"y.	c #000004",
"z.	c #A26859",
"A.	c #FF9D7A",
"B.	c #FFA578",
"C.	c #FEB282",
"D.	c #FDC094",
"E.	c #FDD3AB",
"F.	c #F8B791",
"G.	c #F4AB7F",
"H.	c #F3BE9A",
"I.	c #FFD1A9",
"J.	c #FFCBA2",
"K.	c #633E30",
"L.	c #0A0A0B",
"M.	c #080D0E",
"N.	c #844A3D",
"O.	c #F79576",
"P.	c #FF9C79",
"Q.	c #FFAC83",
"R.	c #FEB98C",
"S.	c #FAAB8A",
"T.	c #FE917A",
"U.	c #FF836F",
"V.	c #FF7A66",
"W.	c #FFB593",
"X.	c #F8A983",
"Y.	c #060606",
"Z.	c #010304",
"`.	c #583028",
" +	c #CE7C60",
".+	c #E68E73",
"++	c #FFAD91",
"@+	c #FFC7A7",
"#+	c #FEB190",
"$+	c #F54C40",
"%+	c #F7080E",
"&+	c #FF4B42",
"*+	c #FFB491",
"=+	c #7F4C35",
"-+	c #010202",
";+	c #240E0A",
">+	c #A24029",
",+	c #B17156",
"'+	c #CB8F71",
")+	c #ECB194",
"!+	c #FFD9BE",
"~+	c #FFE6C3",
"{+	c #FFCEA7",
"]+	c #FFD8AE",
"^+	c #CA9172",
"/+	c #3B302C",
"(+	c #865139",
"_+	c #B88567",
":+	c #E4AB8C",
"<+	c #FAC0A4",
"[+	c #FFC7A2",
"}+	c #F8AF8E",
"|+	c #5D4537",
"1+	c #87604D",
"2+	c #765543",
"                                            ",
"            . . + @ # $ % & *               ",
"          . = - @ ; > . , ' ) ! .           ",
"        . ~ { ] ^ . . . / ( _ : < .         ",
"        . . = { . . [ } | 1 2 3 4 5         ",
"        . . + 6 . 7 8 9 0 a b c d e         ",
"        . f g . . h i j k l m n o p q       ",
"      . . r . . s t u v w x k y z A B       ",
"      . C . . D E F G H I J K L M N O       ",
"      P Q R S T U V W X Y Z `  ...+.        ",
"      @.#.$.%.&.*.=.-.;.>.,.'.).!.~.        ",
"        {.].^./.(._.:.<.[.}.|.1.2.3.        ",
"        4.5.6.7.8.9.0.a.b.c.d.e.f.g.        ",
"      h.i.j.k.l.m.n.o.p.q.r.s.t.u.v.        ",
"    . w.x.y.z.A.B.C.D.E.F.G.H.I.J.K.        ",
"    . L.M.. N.O.P.Q.R.S.T.U.V.W.X.          ",
"    . Y.Z.. `. +.+++@+#+$+%+&+*+=+          ",
"    . -+. . ;+>+,+'+)+!+~+{+]+^+            ",
"    . h..   /+    (+_+:+<+[+}+              ",
"    . . .             |+1+2+                ",
"                                            ",
"                                            "};
