/* XPM */
static char * logo_icon_xpm[] = {
"22 22 135 2",
"  	c None",
". 	c #5F5F63",
"+ 	c #85858D",
"@ 	c #94949E",
"# 	c #85858E",
"$ 	c #5C5C62",
"% 	c #7B7B84",
"& 	c #EEEEF9",
"* 	c #FCFCFF",
"= 	c #F4F5F9",
"- 	c #DCDCE5",
"; 	c #8F8F99",
"> 	c #F0F0F8",
", 	c #FBFBFC",
"' 	c #F5F5FC",
") 	c #9595A0",
"! 	c #626266",
"~ 	c #8B8B94",
"{ 	c #7E7E88",
"] 	c #E7E7F0",
"^ 	c #F2F2F6",
"/ 	c #F5F5F8",
"( 	c #E2E2EC",
"_ 	c #5C5C63",
": 	c #898992",
"< 	c #EDEDF7",
"[ 	c #9999A3",
"} 	c #868691",
"| 	c #EBEBF3",
"1 	c #ECECF1",
"2 	c #EFEFF7",
"3 	c #868791",
"4 	c #9696A1",
"5 	c #E6E6EE",
"6 	c #E8E8F1",
"7 	c #9797A2",
"8 	c #7A7B84",
"9 	c #E4E4EE",
"0 	c #E5E5EC",
"a 	c #EAEAF2",
"b 	c #94949F",
"c 	c #82828B",
"d 	c #DCDCE7",
"e 	c #DFDFE8",
"f 	c #DCDCE8",
"g 	c #9E9EAA",
"h 	c #8D8D98",
"i 	c #CBCBD9",
"j 	c #DEDEE7",
"k 	c #DDDDE6",
"l 	c #E1E1EC",
"m 	c #858590",
"n 	c #404044",
"o 	c #C7C7D6",
"p 	c #D7D7E3",
"q 	c #D4D4DF",
"r 	c #D8D8E4",
"s 	c #D8D8E5",
"t 	c #D6D6E1",
"u 	c #D3D3DF",
"v 	c #D6D6E2",
"w 	c #C7C8D3",
"x 	c #67686E",
"y 	c #767680",
"z 	c #D4D4E4",
"A 	c #D1D1DE",
"B 	c #CDCDDA",
"C 	c #CCCCD9",
"D 	c #EFEFF5",
"E 	c #D6D7E0",
"F 	c #67686F",
"G 	c #72727B",
"H 	c #BFBFCF",
"I 	c #CFCFDF",
"J 	c #D1D1E0",
"K 	c #CFCFDE",
"L 	c #C9C9D9",
"M 	c #C4C4D2",
"N 	c #D8D8E2",
"O 	c #FEFEFF",
"P 	c #D9D9E3",
"Q 	c #6A6A72",
"R 	c #2B2C2E",
"S 	c #5B5C63",
"T 	c #6D6E76",
"U 	c #5E5F66",
"V 	c #9E9EAC",
"W 	c #D7D7E2",
"X 	c #EFEFF3",
"Y 	c #FEFDFF",
"Z 	c #DBDBE5",
"` 	c #6C6D74",
" .	c #A2A3B0",
"..	c #D9D9E7",
"+.	c #DADAE4",
"@.	c #E4E4EC",
"#.	c #DCDDE6",
"$.	c #6F6F77",
"%.	c #9E9FAC",
"&.	c #D8D8E6",
"*.	c #E4E4EB",
"=.	c #EEEEF3",
"-.	c #FDFDFF",
";.	c #DDDEE7",
">.	c #71727A",
",.	c #9A9BA8",
"'.	c #73737D",
").	c #9797A5",
"!.	c #D7D7E6",
"~.	c #E3E3EB",
"{.	c #F8F8FB",
"].	c #DDDEE8",
"^.	c #74757E",
"/.	c #9394A1",
"(.	c #D6D7E5",
"_.	c #E1E1E9",
":.	c #C1C2D0",
"<.	c #E9E9EF",
"[.	c #DBDBE6",
"}.	c #70717A",
"|.	c #8F909D",
"1.	c #D6D6E5",
"2.	c #C3C4D2",
"3.	c #DBDCE6",
"4.	c #B2B3C1",
"5.	c #3B3B40",
"6.	c #8C8D99",
"7.	c #D6D6E4",
"8.	c #DBDBE8",
"9.	c #A9AABA",
"0.	c #313135",
"a.	c #8A8B97",
"b.	c #A4A5B6",
"c.	c #303134",
"d.	c #262628",
"                                            ",
"        . + @ # $                           ",
"        % & * = - ;                         ",
"          # > , , ' )                       ",
"  ! ~       { ] ^ / ( _                     ",
"  : < [       } | 1 2 3                     ",
"  4 5 6 7     8 9 0 a b                     ",
"  c d e f g h i j k l m                     ",
"  n o p q r s t u u v w x                   ",
"    y z A B B B B C q D E F                 ",
"      G H I J K L M N 1 O P Q               ",
"        R S T U V I W 0 X Y Z `             ",
"                   ...+.@.X O #.$.          ",
"                    %.&.+.*.=.-.;.>.        ",
"                      ,.&.+.*.=.-.e '.      ",
"                        ).!.+.~.1 {.].^.    ",
"                          /.(.Z _.:.<.[.}.  ",
"                            |.1.Z 2.3.4.5.  ",
"                              6.7.8.9.0.    ",
"                                a.b.c.      ",
"                                  d.        ",
"                                            "};
