/* XPM */
static char * next_xpm[] = {
"22 22 279 2",
"  	c None",
". 	c #0881EC",
"+ 	c #1E9DFF",
"@ 	c #28A3FF",
"# 	c #2AA8FF",
"$ 	c #27A6FF",
"% 	c #1D9DFF",
"& 	c #0B8CFD",
"* 	c #0064B8",
"= 	c #1492FF",
"- 	c #59C7FF",
"; 	c #6ECDFF",
"> 	c #61BBFF",
", 	c #50B0FF",
"' 	c #4CACFF",
") 	c #4AABFF",
"! 	c #49ABFF",
"~ 	c #41A7FF",
"{ 	c #2DA2FF",
"] 	c #0B92FF",
"^ 	c #005BA7",
"/ 	c #51C5FF",
"( 	c #D2FFFF",
"_ 	c #D7FFFE",
": 	c #7FCCFC",
"< 	c #48B1FF",
"[ 	c #50B2FF",
"} 	c #52B2FF",
"| 	c #54B4FF",
"1 	c #56B3FF",
"2 	c #54AEFF",
"3 	c #4EAAFF",
"4 	c #3EA1FF",
"5 	c #1796FF",
"6 	c #0075D5",
"7 	c #59CAFF",
"8 	c #FFFFFF",
"9 	c #CFFFFF",
"0 	c #7ECAF7",
"a 	c #CFDEF0",
"b 	c #7ABFF4",
"c 	c #3DABFC",
"d 	c #52B8FF",
"e 	c #5CBBFF",
"f 	c #60BCFF",
"g 	c #5FB9FF",
"h 	c #5AB4FF",
"i 	c #54ADFF",
"j 	c #46A1FF",
"k 	c #1C93FF",
"l 	c #006CC7",
"m 	c #199AFF",
"n 	c #EAFFFF",
"o 	c #6BC6FF",
"p 	c #39A8FF",
"q 	c #7DBEF1",
"r 	c #FFFFFC",
"s 	c #BBDDF2",
"t 	c #50B4F5",
"u 	c #50BBFF",
"v 	c #63C4FF",
"w 	c #69C3FF",
"x 	c #66BEFF",
"y 	c #5FB7FF",
"z 	c #58AEFF",
"A 	c #45A0FF",
"B 	c #0B89F5",
"C 	c #004682",
"D 	c #81E5FF",
"E 	c #F6FFFF",
"F 	c #81D4FF",
"G 	c #4BADFF",
"H 	c #39ABF9",
"I 	c #D3E8F6",
"J 	c #ECF2F8",
"K 	c #94D2F2",
"L 	c #5EC0F7",
"M 	c #5DC4FF",
"N 	c #69C5FF",
"O 	c #68BFFF",
"P 	c #60B6FF",
"Q 	c #56AAFF",
"R 	c #2D91F7",
"S 	c #0070CD",
"T 	c #0B83F1",
"U 	c #A7F3FF",
"V 	c #94E4FF",
"W 	c #45AAFF",
"X 	c #36A6FF",
"Y 	c #3BAEFF",
"Z 	c #40B7FF",
"` 	c #62BEF7",
" .	c #FFFFFB",
"..	c #EAF3F7",
"+.	c #97D3F4",
"@.	c #61C2F9",
"#.	c #5CC0FE",
"$.	c #63BCFF",
"%.	c #5FB2FF",
"&.	c #499FFF",
"*.	c #0D81E6",
"=.	c #003360",
"-.	c #219DFF",
";.	c #6BC5FF",
">.	c #4BB0FF",
",.	c #43A9FE",
"'.	c #78C3FE",
").	c #ADDCFE",
"!.	c #C8E8FA",
"~.	c #47B3EF",
"{.	c #B4E1F8",
"].	c #FFFFFE",
"^.	c #E8F3F7",
"/.	c #9AD3F4",
"(.	c #61BBF9",
"_.	c #4FAFFF",
":.	c #49A2FF",
"<.	c #1C85EA",
"[.	c #005297",
"}.	c #3CAEFF",
"|.	c #C0E5FF",
"1.	c #DEEFFE",
"2.	c #8AC2DF",
"3.	c #5FC3F3",
"4.	c #F8FAFB",
"5.	c #BADDFB",
"6.	c #75B8FF",
"7.	c #3792F2",
"8.	c #0061B3",
"9.	c #4EB7FF",
"0.	c #C1D5DE",
"a.	c #46B4E9",
"b.	c #F9FEFF",
"c.	c #FFFFF8",
"d.	c #93B4D6",
"e.	c #095FA9",
"f.	c #2DA5FF",
"g.	c #94B7C9",
"h.	c #61BBE8",
"i.	c #F6F1EC",
"j.	c #AEBECB",
"k.	c #4E7FB6",
"l.	c #236EBF",
"m.	c #005BA9",
"n.	c #1A96FF",
"o.	c #99C4EF",
"p.	c #C9D6E2",
"q.	c #F6F3EE",
"r.	c #FFFFFA",
"s.	c #FFFFF6",
"t.	c #3E8CB8",
"u.	c #BBE8FF",
"v.	c #E4E5E3",
"w.	c #8AABBD",
"x.	c #4E92BF",
"y.	c #4B9AE4",
"z.	c #53A4FF",
"A.	c #3089E7",
"B.	c #035AA5",
"C.	c #158EFE",
"D.	c #1D8EFF",
"E.	c #2789EC",
"F.	c #348CDA",
"G.	c #529BD5",
"H.	c #81B1D6",
"I.	c #6CA0C3",
"J.	c #5AAEE2",
"K.	c #E8E6E4",
"L.	c #87AABC",
"M.	c #529BC3",
"N.	c #5BB4ED",
"O.	c #6FC6FF",
"P.	c #6EBEFF",
"Q.	c #59A5FF",
"R.	c #277ED5",
"S.	c #004781",
"T.	c #096BBD",
"U.	c #35A4FF",
"V.	c #3EA2FF",
"W.	c #46AAFF",
"X.	c #4AAEFF",
"Y.	c #42ABFD",
"Z.	c #3AABFA",
"`.	c #E0F8FF",
" +	c #EBE9E5",
".+	c #8AA9BA",
"++	c #4E99C0",
"@+	c #5CB9EE",
"#+	c #76D0FF",
"$+	c #78CAFF",
"%+	c #71BEFF",
"&+	c #68B2FF",
"*+	c #4994EB",
"=+	c #1572C6",
"-+	c #002645",
";+	c #249BFF",
">+	c #40A0FF",
",+	c #48A4FF",
"'+	c #4FAAFF",
")+	c #44AAFF",
"!+	c #A5DDFF",
"~+	c #9DB1C0",
"{+	c #468EBD",
"]+	c #50AEE9",
"^+	c #71CCFF",
"/+	c #78CEFF",
"(+	c #76C5FF",
"_+	c #70BDFF",
":+	c #6AB3FF",
"<+	c #59A2F8",
"[+	c #2E7ED1",
"}+	c #04569F",
"|+	c #0762AF",
"1+	c #34A0FF",
"2+	c #439EFF",
"3+	c #42A1FF",
"4+	c #69BAFF",
"5+	c #DFE3E5",
"6+	c #5C8AB0",
"7+	c #4198DF",
"8+	c #66C1FF",
"9+	c #71C6FF",
"0+	c #71C4FF",
"a+	c #72BFFF",
"b+	c #6EBBFF",
"c+	c #69B1FF",
"d+	c #5FA5FA",
"e+	c #418BDE",
"f+	c #116CC0",
"g+	c #1281E2",
"h+	c #399EFF",
"i+	c #44A0FF",
"j+	c #7DB5F6",
"k+	c #5290D0",
"l+	c #459DF5",
"m+	c #64BAFF",
"n+	c #68B9FF",
"o+	c #6AB8FF",
"p+	c #6CB9FF",
"q+	c #6AB5FF",
"r+	c #67AFFF",
"s+	c #5DA3F9",
"t+	c #448DDF",
"u+	c #1B75CA",
"v+	c #00467F",
"w+	c #1179D5",
"x+	c #369DFF",
"y+	c #3D95F3",
"z+	c #449CFE",
"A+	c #54A9FF",
"B+	c #59AAFF",
"C+	c #5FACFF",
"D+	c #60ACFF",
"E+	c #61AAFF",
"F+	c #5EA7FD",
"G+	c #539AEF",
"H+	c #3784D7",
"I+	c #116EC2",
"J+	c #00457F",
"K+	c #004E8F",
"L+	c #1680E0",
"M+	c #2F95F9",
"N+	c #3E96F6",
"O+	c #4799F4",
"P+	c #4C9AF4",
"Q+	c #4C9AF1",
"R+	c #4693E9",
"S+	c #3688DE",
"T+	c #1B77CE",
"U+	c #0359A2",
"V+	c #002446",
"W+	c #003969",
"X+	c #055DA6",
"Y+	c #0C6DC0",
"Z+	c #0E6DC1",
"`+	c #0C6BBB",
" @	c #0561AE",
".@	c #004889",
"+@	c #002548",
"                                            ",
"              . + @ # $ % & *               ",
"          = - ; > , ' ) ! ~ { ] ^           ",
"        / ( _ : < [ } | 1 2 3 4 5 6         ",
"      7 8 9 0 a b c d e f g h i j k l       ",
"    m 8 n o p q r s t u v w x y z A B C     ",
"    D E F G < H I 8 J K L M N O P Q R S     ",
"  T U V W X Y Z `  .8 8 ..+.@.#.$.%.&.*.=.  ",
"  -.;.>.,.'.).!.~.{.8 8 8 ].^./.(._.:.<.[.  ",
"  }.|.1.].8 8 8 2.3.8 8 8 8 8 8 4.5.6.7.8.  ",
"  9.8 8 8 8 8 8 0.a.b.8 8 8 8 8 8 8 c.d.e.  ",
"  f.8 8 8 8 8 8 g.h.8 8 8 8 8 8 i.j.k.l.m.  ",
"  n.o.p.q.r.8 s.t.u.8 8 8 8 v.w.x.y.z.A.B.  ",
"  C.D.E.F.G.H.I.J.8 8 8 K.L.M.N.O.P.Q.R.S.  ",
"  T.U.V.W.X.Y.Z.`.8  +.+++@+#+$+%+&+*+=+-+  ",
"    ;+>+,+'+)+!+c.~+{+]+^+/+(+_+:+<+[+}+    ",
"    |+1+2+3+4+5+6+7+8+9+0+a+b+c+d+e+f+-+    ",
"      g+h+i+j+k+l+m+n+o+p+q+r+s+t+u+v+      ",
"        w+x+y+z+A+B+C+D+E+F+G+H+I+J+        ",
"          K+L+M+N+O+P+Q+R+S+T+U+V+          ",
"              W+X+Y+Z+`+ @.@+@              ",
"                                            "};
