/* XPM */
static char * ok_xpm[] = {
"16 16 5 1",
" 	c None",
".	c #00FF00",
"+	c #00C000",
"@	c #008000",
"#	c #000000",
"                ",
"                ",
"                ",
"                ",
"                ",
"           ..   ",
"          .+@   ",
"  ..     .+@#   ",
"  .+.   .+@#    ",
"  .++. .+@#     ",
"  #@++.+@#      ",
"   #@++@#       ",
"    #@@#        ",
"     ##         ",
"                ",
"                "};
