/* XPM */
static char *oscada_cfg_xpm[]={
"32 32 12 1",
"j c None",
". c None",
"a c #000000",
"h c #008000",
"c c #00ff00",
"f c #303030",
"# c #808080",
"g c #a0a0a0",
"i c #c0ffc0",
"b c #c3c3c3",
"d c #dcdcdc",
"e c #ffff00",
"................................",
"...........#########............",
"........####aaaaaaa####.........",
".......##aaaaaaaaaaaaa##........",
"......##aaaaaaaaaaaaaaa##.......",
"......#aaaaaaaaaaaaaaaaa##......",
"....##aaaaaaaaaaaaaaaaaaa##.....",
"...##abbbbbbbbbbbaaaaaaaaa##....",
"..##aabacaaccaaabaaaaaaaaaa##...",
"..#aaabccacaacaabbbbbbaaaaaa#...",
"..#aaabacacaacaabaaaabaaaaaa#...",
".##aaabacacaacccbaaabbbaaaaa##..",
".#aaaabacaaccaccbaabaaabaaaaa#..",
".#aaaabbbbbbbbbbbaabbbbbaaaaa#..",
".#aaaaaaaaabaaaaaabaabaabaaaa#..",
".#aaaaaaaaabaaaaaabbababbaaaa#..",
".#aaaaaaaabbbaaaaabdbbbdbaaaa#..",
".#aaeeeeeeeeeeeeeebdddddbeeea#..",
".#aaeeeeeeeeeeeeeebdddddbeeea#..",
".##aaaaaaaaaaaaaafbdgfgdbfaa##..",
"..#aaaaaaaaaaaaaafbgfffgbfaa#...",
"..#aaaaaaaaaaaaaafgfffffgfaa#...",
"..##aaaaaaaaaaaaafffffffffa##...",
"..hhhaahhhhhhaahhhhffffffa##....",
".hhiihahiiiiiahhiiifffffa##.....",
".hi..hihiaaaaahiahhiaaaa##......",
".hi...#hihhhaahiaaaaaaa##.......",
".hi....hiiiiaahiaaaaaa##........",
".hi....hi###aahiaaa####.........",
".hi....hi..###hi##hi............",
".hi.jhihi.....hii.hi............",
".jhihi.hi......hihii............"};
