/* XPM */
static char * reload_xpm[] = {
"22 22 280 2",
"  	c None",
". 	c #069906",
"+ 	c #14B814",
"@ 	c #45CC45",
"# 	c #4FD44F",
"$ 	c #2CC52C",
"% 	c #0AB30A",
"& 	c #009D00",
"* 	c #007600",
"= 	c #11AE11",
"- 	c #56E356",
"; 	c #5DE15D",
"> 	c #3FCB3F",
", 	c #73CB73",
"' 	c #F8F7F8",
") 	c #FFFFFF",
"! 	c #FAFFFA",
"~ 	c #9EE09E",
"{ 	c #22B722",
"] 	c #00A600",
"^ 	c #006E00",
"/ 	c #4EDE4E",
"( 	c #C5FFC5",
"_ 	c #ACFFAC",
": 	c #A8F2A8",
"< 	c #CFF4CF",
"[ 	c #EBFAEB",
"} 	c #52B752",
"| 	c #00A900",
"1 	c #008E00",
"2 	c #56E456",
"3 	c #DCFFDC",
"4 	c #F5FFF5",
"5 	c #E4E2E4",
"6 	c #BBD3BB",
"7 	c #54B154",
"8 	c #0AA80A",
"9 	c #008300",
"0 	c #17B717",
"a 	c #F2FFF2",
"b 	c #A5B9A5",
"c 	c #3E953E",
"d 	c #25A525",
"e 	c #A5DBA5",
"f 	c #FFF6FF",
"g 	c #9BB89B",
"h 	c #71AA71",
"i 	c #73AF73",
"j 	c #BACFBA",
"k 	c #F3ECF3",
"l 	c #43A943",
"m 	c #01A501",
"n 	c #005500",
"o 	c #76F776",
"p 	c #E9FFE9",
"q 	c #FFF5FF",
"r 	c #6A9F6A",
"s 	c #249F24",
"t 	c #49D549",
"u 	c #62E962",
"v 	c #91DB91",
"w 	c #4AAC4A",
"x 	c #3FBF3F",
"y 	c #53D553",
"z 	c #52D152",
"A 	c #44BC44",
"B 	c #77C177",
"C 	c #88C088",
"D 	c #27A527",
"E 	c #008800",
"F 	c #099F09",
"G 	c #93FF93",
"H 	c #F1FFF1",
"I 	c #FFF8FF",
"J 	c #438C43",
"K 	c #2CB22C",
"L 	c #5CE45C",
"M 	c #5BE65B",
"N 	c #6BE06B",
"O 	c #80D580",
"P 	c #7FD47F",
"Q 	c #6DDE6D",
"R 	c #70F570",
"S 	c #76F076",
"T 	c #70E370",
"U 	c #58D258",
"V 	c #73CC73",
"W 	c #7ABB7A",
"X 	c #009500",
"Y 	c #003F00",
"Z 	c #22BD22",
"` 	c #82EA82",
" .	c #78A378",
"..	c #29B129",
"+.	c #5ADF5A",
"@.	c #5AE35A",
"#.	c #8FDC8F",
"$.	c #FFF9FF",
"%.	c #CDC0CD",
"&.	c #7AB27A",
"*.	c #72ED72",
"=.	c #77EA77",
"-.	c #6CDA6C",
";.	c #6CD56C",
">.	c #B1D2B1",
",.	c #1B931B",
"'.	c #006500",
").	c #20C120",
"!.	c #99E799",
"~.	c #F4E7F4",
"{.	c #2A962A",
"].	c #51D851",
"^.	c #5BDF5B",
"/.	c #68D568",
"(.	c #F7E6F7",
"_.	c #C7AFC7",
":.	c #69B669",
"<.	c #78F178",
"[.	c #70E070",
"}.	c #DAECDA",
"|.	c #319131",
"1.	c #007500",
"2.	c #18BE18",
"3.	c #AFEAAF",
"4.	c #ADBFAD",
"5.	c #2DB12D",
"6.	c #58D958",
"7.	c #5CE25C",
"8.	c #73BD73",
"9.	c #EAD3EA",
"0.	c #FFFAFF",
"a.	c #E4CFE4",
"b.	c #709570",
"c.	c #72EB72",
"d.	c #70E270",
"e.	c #70D770",
"f.	c #FDF9FD",
"g.	c #2F882F",
"h.	c #007700",
"i.	c #16BC16",
"j.	c #9DDE9D",
"k.	c #90B690",
"l.	c #38BC38",
"m.	c #5BD55B",
"n.	c #60E260",
"o.	c #65C265",
"p.	c #C4AFC4",
"q.	c #FFFEFF",
"r.	c #F9F8F9",
"s.	c #EFE9EF",
"t.	c #D5C0D5",
"u.	c #629562",
"v.	c #74ED74",
"w.	c #66DE66",
"x.	c #9DE89D",
"y.	c #FDF0FD",
"z.	c #248524",
"A.	c #027502",
"B.	c #19B619",
"C.	c #71CD71",
"D.	c #8EBE8E",
"E.	c #3ABC3A",
"F.	c #5AD45A",
"G.	c #63DC63",
"H.	c #61E061",
"I.	c #7DA17D",
"J.	c #D4BBD4",
"K.	c #EDDAED",
"L.	c #EAD8EA",
"M.	c #D8C4D8",
"N.	c #838D83",
"O.	c #59BD59",
"P.	c #5ED75E",
"Q.	c #C4CAC4",
"R.	c #138213",
"S.	c #027002",
"T.	c #16A916",
"U.	c #42BF42",
"V.	c #87C187",
"W.	c #3AB73A",
"X.	c #52CF52",
"Y.	c #5ED55E",
"Z.	c #66E166",
"`.	c #5EDC5E",
" +	c #62AA62",
".+	c #799C79",
"++	c #819E81",
"@+	c #659565",
"#+	c #57BB57",
"$+	c #6FEC6F",
"%+	c #61DE61",
"&+	c #CEF5CE",
"*+	c #579057",
"=+	c #168B16",
"-+	c #005800",
";+	c #097F09",
">+	c #2DBD2D",
",+	c #5BBA5B",
"'+	c #7EC67E",
")+	c #47C047",
"!+	c #3FC63F",
"~+	c #4ED14E",
"{+	c #50DB50",
"]+	c #54E254",
"^+	c #85E685",
"/+	c #79D379",
"(+	c #5BE05B",
"_+	c #65EB65",
":+	c #68E068",
"<+	c #CFF7CF",
"[+	c #B2BEB2",
"}+	c #238523",
"|+	c #148B14",
"1+	c #002E00",
"2+	c #22B622",
"3+	c #90CB90",
"4+	c #F5F8F5",
"5+	c #A5DEA5",
"6+	c #8FD98F",
"7+	c #A5E5A5",
"8+	c #DEFADE",
"9+	c #E5E5E5",
"0+	c #49A749",
"a+	c #67E067",
"b+	c #A0EBA0",
"c+	c #B8C1B8",
"d+	c #328232",
"e+	c #269426",
"f+	c #036C03",
"g+	c #067606",
"h+	c #2FBB2F",
"i+	c #2AAA2A",
"j+	c #CEE4CE",
"k+	c #DFE5DF",
"l+	c #D5EBD5",
"m+	c #96AD96",
"n+	c #2F842F",
"o+	c #379E37",
"p+	c #118511",
"q+	c #129B12",
"r+	c #2EB52E",
"s+	c #2DA52D",
"t+	c #B8D8B8",
"u+	c #EDEAED",
"v+	c #B9CAB9",
"w+	c #669966",
"x+	c #358F35",
"y+	c #3FA43F",
"z+	c #1C8D1C",
"A+	c #005300",
"B+	c #0F8F0F",
"C+	c #26B326",
"D+	c #24A124",
"E+	c #74B674",
"F+	c #DFE8DF",
"G+	c #ABC0AB",
"H+	c #449344",
"I+	c #369C36",
"J+	c #41A741",
"K+	c #369E36",
"L+	c #128712",
"M+	c #005400",
"N+	c #005F00",
"O+	c #109710",
"P+	c #15A115",
"Q+	c #239623",
"R+	c #439843",
"S+	c #6AA76A",
"T+	c #7AAE7A",
"U+	c #4CA14C",
"V+	c #2F9F2F",
"W+	c #1B911B",
"X+	c #002D00",
"Y+	c #004700",
"Z+	c #007000",
"`+	c #007F00",
" @	c #007A00",
".@	c #007200",
"+@	c #005B00",
"@@	c #002F00",
"                                            ",
"              . + @ # $ % & *               ",
"          = - ; > , ' ) ! ~ { ] ^           ",
"        / ( _ : < [ ) ) ) ) ) } | 1         ",
"      2 ) 3 4 ) ) 5 6 ) ) ) ) ) 7 8 9       ",
"    0 a a ) ) b c d e f g h i j k l m n     ",
"    o p ) q r s t u v w x y z A B C D E     ",
"  F G H I J K L M N O P Q R S T U V W X Y   ",
"  Z ` )  ...+.@.#.f ) $.%.&.*.=.-.;.>.,.'.  ",
"  ).!.~.{.].^./.(.) ) ) ) _.:.<.[./.}.|.1.  ",
"  2.3.4.5.6.7.8.9.) ) ) 0.a.b.c.d.e.f.g.h.  ",
"  i.j.k.l.m.n.o.p.$.q.r.s.t.u.v.w.x.y.z.A.  ",
"  B.C.D.E.F.G.H.I.J.K.L.M.N.O.v.P.) Q.R.S.  ",
"  T.U.V.W.X.Y.Z.`. +.+++@+#+$+%+&+) *+=+-+  ",
"  ;+>+,+'+)+!+~+{+]+^+/+(+_+:+<+) [+}+|+1+  ",
"    2+5.3+4+5+6+7+8+9+0+a+b+! ) c+d+e+f+    ",
"    g+h+i+j+) ) ) ) k+l+) ) ) m+n+o+p+1+    ",
"      q+r+s+t+) ) ) ) q.u+v+w+x+y+z+A+      ",
"        B+C+D+E+F+) ) G+H+I+J+K+L+M+        ",
"          N+O+P+Q+R+S+T+U+V+W+f+X+          ",
"              Y+Z+`+ @* .@+@@@              ",
"                                            "};
