/* XPM */
static char * start_xpm[] = {
"22 22 265 2",
"  	c None",
". 	c #000000",
"+ 	c #0881EB",
"@ 	c #1E9DFF",
"# 	c #28A3FF",
"$ 	c #2AA8FF",
"% 	c #27A6FF",
"& 	c #1D9DFF",
"* 	c #0B8CFD",
"= 	c #0064B8",
"- 	c #1396FF",
"; 	c #5DC9FF",
"> 	c #74CDFF",
", 	c #62BCFF",
"' 	c #51B0FF",
") 	c #4CACFF",
"! 	c #4AABFF",
"~ 	c #49ABFF",
"{ 	c #41A7FF",
"] 	c #2CA2FF",
"^ 	c #0892FF",
"/ 	c #005BA7",
"( 	c #000001",
"_ 	c #50B4FF",
": 	c #D8FFFF",
"< 	c #C2FFFF",
"[ 	c #7DCEFF",
"} 	c #5AB8FF",
"| 	c #54B3FF",
"1 	c #54B2FF",
"2 	c #54B4FF",
"3 	c #55B3FF",
"4 	c #52AEFF",
"5 	c #44A6FF",
"6 	c #3CA1FF",
"7 	c #1B98FF",
"8 	c #0074D6",
"9 	c #060406",
"0 	c #F6FFFF",
"a 	c #E1FFFF",
"b 	c #78CFFF",
"c 	c #52B3FF",
"d 	c #58B8FF",
"e 	c #5CBBFF",
"f 	c #5DBBFF",
"g 	c #4CB2FF",
"h 	c #67BDFF",
"i 	c #8AC1F8",
"j 	c #4399F9",
"k 	c #1A93FF",
"l 	c #006CC7",
"m 	c #150A02",
"n 	c #CDFCFC",
"o 	c #7CDBFF",
"p 	c #4FB1FF",
"q 	c #51B3FF",
"r 	c #5AB9FF",
"s 	c #5FBEFF",
"t 	c #64C3FF",
"u 	c #5FC1FF",
"v 	c #4FBBFF",
"w 	c #8BD3FF",
"x 	c #F6F4F4",
"y 	c #6299C8",
"z 	c #4CA6FF",
"A 	c #45A2FF",
"B 	c #0B8AF5",
"C 	c #004682",
"D 	c #0B0800",
"E 	c #7DCEFC",
"F 	c #5AC1FF",
"G 	c #4FB4FF",
"H 	c #57B9FF",
"I 	c #60C1FF",
"J 	c #60C3FF",
"K 	c #58C2FF",
"L 	c #68C8FE",
"M 	c #BAE6FF",
"N 	c #FFFFFF",
"O 	c #9CB0BC",
"P 	c #469FE3",
"Q 	c #62BAFF",
"R 	c #56AAFF",
"S 	c #2D92F7",
"T 	c #0070CD",
"U 	c #05579B",
"V 	c #020000",
"W 	c #56B1FB",
"X 	c #54BFFF",
"Y 	c #54B8FF",
"Z 	c #56BDFF",
"` 	c #53BFFF",
" .	c #66C9FE",
"..	c #B1E4FE",
"+.	c #DEDCDA",
"@.	c #3F93C3",
"#.	c #66C7FF",
"$.	c #66BFFF",
"%.	c #5FB3FF",
"&.	c #499FFF",
"*.	c #0C80E6",
"=.	c #003360",
"-.	c #146DBE",
";.	c #47A9FB",
">.	c #4ABCFF",
",.	c #42B2FF",
"'.	c #5EC2FE",
").	c #A9DEFD",
"!.	c #F9FDFE",
"~.	c #FFFFFE",
"{.	c #649AB6",
"].	c #69C8F9",
"^.	c #78CEFF",
"/.	c #5EBBFE",
"(.	c #4FAFFF",
"_.	c #419DFF",
":.	c #1680E9",
"<.	c #005197",
"[.	c #1C72C5",
"}.	c #339EF5",
"|.	c #63C8FF",
"1.	c #AADDFF",
"2.	c #FBFDFE",
"3.	c #C2D0D5",
"4.	c #44A3CF",
"5.	c #F1FFFF",
"6.	c #E0F0F9",
"7.	c #BBDEFB",
"8.	c #86BFFE",
"9.	c #378EEB",
"0.	c #005AB0",
"a.	c #1770C2",
"b.	c #060000",
"c.	c #6E6D6A",
"d.	c #F4FFFF",
"e.	c #7CAEC4",
"f.	c #7ECFF2",
"g.	c #3072AA",
"h.	c #1870C2",
"i.	c #474340",
"j.	c #D9E6F2",
"k.	c #8CBFD5",
"l.	c #85D2F5",
"m.	c #1A5A90",
"n.	c #176DBB",
"o.	c #2B90E6",
"p.	c #51ABEE",
"q.	c #92BEDD",
"r.	c #ECEEED",
"s.	c #DCE7ED",
"t.	c #56B6E2",
"u.	c #FDFFFF",
"v.	c #E7EAEE",
"w.	c #004483",
"x.	c #0F61AB",
"y.	c #47A7FF",
"z.	c #53C0FF",
"A.	c #44AEFC",
"B.	c #4EA9E4",
"C.	c #90BFDB",
"D.	c #EAEDEE",
"E.	c #7DBDDD",
"F.	c #8FCFF2",
"G.	c #C7D3DA",
"H.	c #99B3C8",
"I.	c #769EC9",
"J.	c #467FC1",
"K.	c #0F5FAF",
"L.	c #003D7A",
"M.	c #033D6F",
"N.	c #48A3FC",
"O.	c #5ABEFF",
"P.	c #5DBAFF",
"Q.	c #60BFFF",
"R.	c #53B9FB",
"S.	c #56B0E6",
"T.	c #9AC5DD",
"U.	c #F0F0EF",
"V.	c #F7F7F4",
"W.	c #53ABE4",
"X.	c #52A9EB",
"Y.	c #52A5F2",
"Z.	c #53A5FF",
"`.	c #3D90EF",
" +	c #0E71CC",
".+	c #002547",
"++	c #449DFB",
"@+	c #56B7FF",
"#+	c #5BB2FF",
"$+	c #68C0FF",
"%+	c #68C5FF",
"&+	c #58BBFA",
"*+	c #5BB0E6",
"=+	c #A4C9E1",
"-+	c #FFFFFA",
";+	c #C0D9EA",
">+	c #58AFFF",
",+	c #68B7FF",
"'+	c #5AA5FC",
")+	c #2F80D4",
"!+	c #0358A0",
"~+	c #3D97F6",
"{+	c #50AFFF",
"]+	c #55ABFF",
"^+	c #5DB2FF",
"/+	c #64B9FF",
"(+	c #69BDFF",
"_+	c #6EC0FF",
":+	c #69C2FF",
"<+	c #56B4F9",
"[+	c #6DADE3",
"}+	c #E4E5E6",
"|+	c #87B5ED",
"1+	c #52A0FD",
"2+	c #418BDF",
"3+	c #116CC0",
"4+	c #002545",
"5+	c #000204",
"6+	c #338FED",
"7+	c #49A8FF",
"8+	c #4DA4FF",
"9+	c #5EAFFF",
"0+	c #64B5FF",
"a+	c #68B8FF",
"b+	c #69B8FF",
"c+	c #69BAFF",
"d+	c #5CB0FF",
"e+	c #62A5F1",
"f+	c #8CB0DE",
"g+	c #4488D7",
"h+	c #1B75CC",
"i+	c #00467F",
"j+	c #116EC2",
"k+	c #33A0FF",
"l+	c #439CFC",
"m+	c #4CA0FD",
"n+	c #54A5FF",
"o+	c #59A9FF",
"p+	c #5FABFF",
"q+	c #60ACFF",
"r+	c #61ABFF",
"s+	c #5EA7FF",
"t+	c #4E9AF2",
"u+	c #3180D4",
"v+	c #00457E",
"w+	c #015091",
"x+	c #1680E0",
"y+	c #2F93F7",
"z+	c #3E96F5",
"A+	c #4798F4",
"B+	c #4C9AF4",
"C+	c #4C9AF1",
"D+	c #4694E9",
"E+	c #3689DE",
"F+	c #1A77CF",
"G+	c #0259A4",
"H+	c #002447",
"I+	c #003969",
"J+	c #055DA6",
"K+	c #0C6DC0",
"L+	c #0E6DC1",
"M+	c #0C6BBB",
"N+	c #0561AE",
"O+	c #004889",
"P+	c #002548",
"                                            ",
"    .         + @ # $ % & * =               ",
"    . .   - ; > , ' ) ! ~ { ] ^ /           ",
"    . ( _ : < [ } | 1 2 3 4 5 6 7 8         ",
"    . 9 0 a b 3 c d e f e g h i j k l       ",
"    . m n o p q r s t u v w x y z A B C     ",
"    . D E F G H I J K L M N O P Q R S T     ",
"  U . V W X Y Z `  ...N N +.@.#.$.%.&.*.=.  ",
"  -.. . ;.>.,.'.).!.N N ~.{.].^./.(._.:.<.  ",
"  [.. . }.|.1.2.N N N N 3.4.5.~.6.7.8.9.0.  ",
"  a.b.c.d.N N N N N N N e.f.N N N N N N g.  ",
"  h.. i.j.N N N N N N N k.l.N N N N N N m.  ",
"  n.. . o.p.q.r.N N N N s.t.u.N N N N v.w.  ",
"  x.. . y.z.A.B.C.D.N N N E.F.G.H.I.J.K.L.  ",
"  M.. . N.O.P.Q.R.S.T.U.N V.W.X.Y.Z.`. +.+  ",
"    . ( ++@+#+Q $+%+&+*+=+-+;+>+,+'+)+!+    ",
"    . ( ~+{+]+^+/+(+_+:+<+[+}+|+1+2+3+4+    ",
"    . 5+6+7+8+R 9+0+a+b+c+d+e+f+g+h+i+      ",
"    . . j+k+l+m+n+o+p+q+r+s+t+u+-.v+        ",
"    . .   w+x+y+z+A+B+C+D+E+F+G+H+          ",
"    . .       I+J+K+L+M+N+O+P+              ",
"                                            "};
