/* XPM */
static char * stop_xpm[] = {
"22 22 269 2",
"  	c None",
". 	c #DFE9E9",
"+ 	c #FFFFFF",
"@ 	c #E5F5F5",
"# 	c #959B9B",
"$ 	c #F7FFFF",
"% 	c #F4CFCF",
"& 	c #E29191",
"* 	c #DB7B7B",
"= 	c #DA7F7F",
"- 	c #DFA3A3",
"; 	c #F8F2F2",
"> 	c #E6F9F9",
", 	c #7D8181",
"' 	c #E89B9B",
") 	c #D52C2C",
"! 	c #D61212",
"~ 	c #D60F0F",
"{ 	c #D50909",
"] 	c #D20606",
"^ 	c #CA0000",
"/ 	c #BB0000",
"( 	c #BF4242",
"_ 	c #E8E2E2",
": 	c #FCFFFF",
"< 	c #AEB3B3",
"[ 	c #FDF7F7",
"} 	c #DA3C3C",
"| 	c #E75050",
"1 	c #FF8282",
"2 	c #FF6565",
"3 	c #F65252",
"4 	c #F45151",
"5 	c #F34F4F",
"6 	c #F04949",
"7 	c #E43939",
"8 	c #CA0101",
"9 	c #AA0000",
"0 	c #C69C9C",
"a 	c #F5FFFF",
"b 	c #A4AAAA",
"c 	c #F6FFFF",
"d 	c #D93939",
"e 	c #FBB3B3",
"f 	c #FFE6E6",
"g 	c #FF7878",
"h 	c #FC5454",
"i 	c #FC5656",
"j 	c #FE5C5C",
"k 	c #FF5D5D",
"l 	c #FD5E5E",
"m 	c #F85B5B",
"n 	c #EB5050",
"o 	c #D21D1D",
"p 	c #9C0000",
"q 	c #B78A8A",
"r 	c #EEFFFF",
"s 	c #6B6D6D",
"t 	c #DF8181",
"u 	c #F08080",
"v 	c #FF7F7F",
"w 	c #FC4A4A",
"x 	c #FD5252",
"y 	c #FF6464",
"z 	c #FF6767",
"A 	c #FF6868",
"B 	c #FF6666",
"C 	c #F95F5F",
"D 	c #E95151",
"E 	c #C60D0D",
"F 	c #910000",
"G 	c #CFD7D7",
"H 	c #C1CECE",
"I 	c #D1DDDD",
"J 	c #FEFEFE",
"K 	c #DC3838",
"L 	c #FFD1D1",
"M 	c #FF7979",
"N 	c #FA3333",
"O 	c #FD3737",
"P 	c #FF4848",
"Q 	c #FF5454",
"R 	c #FF5B5B",
"S 	c #FF5E5E",
"T 	c #FF6060",
"U 	c #FF5959",
"V 	c #F75151",
"W 	c #E24646",
"X 	c #AD0000",
"Y 	c #954A4A",
"Z 	c #DFF7F7",
"` 	c #555959",
" .	c #F1FFFF",
"..	c #E2A1A1",
"+.	c #EA4242",
"@.	c #FF8383",
"#.	c #F84949",
"$.	c #F88B8B",
"%.	c #FBA0A0",
"&.	c #FBA7A7",
"*.	c #FBABAB",
"=.	c #FBAEAE",
"-.	c #FBAFAF",
";.	c #FBB0B0",
">.	c #FEAFAF",
",.	c #FC9A9A",
"'.	c #E84E4E",
").	c #CA1D1D",
"!.	c #830000",
"~.	c #C5D5D5",
"{.	c #949B9B",
"].	c #D66969",
"^.	c #E92A2A",
"/.	c #F95656",
"(.	c #FDEEEE",
"_.	c #ECC4C4",
":.	c #C92C2C",
"<.	c #8C0000",
"[.	c #A59D9D",
"}.	c #B3C1C1",
"|.	c #F3FFFF",
"1.	c #D15454",
"2.	c #DD1111",
"3.	c #F17373",
"4.	c #B94646",
"5.	c #920000",
"6.	c #977F7F",
"7.	c #B8C8C8",
"8.	c #EAFFFF",
"9.	c #D05656",
"0.	c #D80707",
"a.	c #EF7474",
"b.	c #B04646",
"c.	c #900000",
"d.	c #917A7A",
"e.	c #B6C4C4",
"f.	c #D8F7F7",
"g.	c #CF6E6E",
"h.	c #D30606",
"i.	c #E64444",
"j.	c #FDFFFF",
"k.	c #D8D4D4",
"l.	c #A42626",
"m.	c #870000",
"n.	c #948C8C",
"o.	c #AFB9B9",
"p.	c #BED4D4",
"q.	c #D7A8A8",
"r.	c #CA0808",
"s.	c #E22D2D",
"t.	c #DE5959",
"u.	c #DBA9A9",
"v.	c #D7B4B4",
"w.	c #D6B4B4",
"x.	c #D6B5B5",
"y.	c #D6B6B6",
"z.	c #D6B8B8",
"A.	c #D7B9B9",
"B.	c #DABBBB",
"C.	c #CDA3A3",
"D.	c #AC4646",
"E.	c #B62020",
"F.	c #760101",
"G.	c #A5B2B2",
"H.	c #8B9292",
"I.	c #828A8A",
"J.	c #DDEBEB",
"K.	c #BE2020",
"L.	c #DB2727",
"M.	c #E83C3C",
"N.	c #E23636",
"O.	c #E24040",
"P.	c #E94747",
"Q.	c #EB4E4E",
"R.	c #EB5252",
"S.	c #EB5757",
"T.	c #EB5858",
"U.	c #ED5858",
"V.	c #E95656",
"W.	c #DE5151",
"X.	c #D64C4C",
"Y.	c #9D0505",
"Z.	c #6C3434",
"`.	c #BFD3D3",
" +	c #494C4C",
".+	c #CCE7E7",
"++	c #C29090",
"@+	c #C20707",
"#+	c #DD3B3B",
"$+	c #EA4C4C",
"%+	c #F45A5A",
"&+	c #FD6262",
"*+	c #FF6B6B",
"=+	c #FF6F6F",
"-+	c #FF7272",
";+	c #FF7474",
">+	c #FF7373",
",+	c #F66F6F",
"'+	c #DE5C5C",
")+	c #AC1E1E",
"!+	c #6F0000",
"~+	c #8F9797",
"{+	c #AAB3B3",
"]+	c #787E7E",
"^+	c #D7F3F3",
"/+	c #AF4949",
"(+	c #C30707",
"_+	c #D83C3C",
":+	c #E25151",
"<+	c #EA5A5A",
"[+	c #EF6363",
"}+	c #F36868",
"|+	c #F56C6C",
"1+	c #F16D6D",
"2+	c #EA6A6A",
"3+	c #D85C5C",
"4+	c #AD2424",
"5+	c #730000",
"6+	c #705D5D",
"7+	c #C1D2D2",
"8+	c #494B4B",
"9+	c #A8B4B4",
"0+	c #CDDBDB",
"a+	c #A43E3E",
"b+	c #B10505",
"c+	c #CE2929",
"d+	c #DA4747",
"e+	c #DF5454",
"f+	c #E25C5C",
"g+	c #E35D5D",
"h+	c #DC5A5A",
"i+	c #C94444",
"j+	c #A51111",
"k+	c #740000",
"l+	c #6E5959",
"m+	c #B4C6C6",
"n+	c #858989",
"o+	c #9FABAB",
"p+	c #CAE4E4",
"q+	c #A78989",
"r+	c #962121",
"s+	c #A20505",
"t+	c #AC0D0D",
"u+	c #AE1111",
"v+	c #A81111",
"w+	c #980606",
"x+	c #800000",
"y+	c #6D2424",
"z+	c #868B8B",
"A+	c #BACDCD",
"B+	c #848787",
"C+	c #6B7171",
"D+	c #B3C6C6",
"E+	c #BBCFCF",
"F+	c #A29A9A",
"G+	c #8E6565",
"H+	c #865050",
"I+	c #835050",
"J+	c #826565",
"K+	c #919898",
"L+	c #AEC2C2",
"M+	c #A3AEAE",
"N+	c #575D5D",
"O+	c #8F9B9B",
"P+	c #A5B9B9",
"Q+	c #A7BDBD",
"R+	c #A7BABA",
"S+	c #A1B2B2",
"T+	c #868E8E",
"                                            ",
"              . + + + + + @ #               ",
"          $ + + % & * = - ; + > ,           ",
"        + + ' ) ! ~ { ] ^ / ( _ : <         ",
"      + [ } | 1 2 3 4 5 6 7 8 9 0 a b       ",
"    c + d e f g h i j k l m n o p q r s     ",
"    + t u + v w x k y z A B C D E F G H     ",
"  I J K L M N O P Q R S T k U V W X Y Z `   ",
"   ...+.@.#.$.%.&.*.=.-.;.;.>.,.'.).!.~.{.  ",
"  a ].^./.(.+ + + + + + + + + + _.:.<.[.}.  ",
"  |.1.2.3.+ + + + + + + + + + + + 4.5.6.7.  ",
"  8.9.0.a.+ + + + + + + + + + + + b.c.d.e.  ",
"  f.g.h.i.j.+ + + + + + + + + + k.l.m.n.o.  ",
"  p.q.r.s.t.u.v.w.x.y.z.z.A.B.C.D.E.F.G.H.  ",
"  I.J.K.L.M.N.O.P.Q.R.S.T.U.V.W.X.Y.Z.`. +  ",
"    .+++@+#+$+%+&+*+=+-+;+>+,+'+)+!+~+{+    ",
"    ]+^+/+(+_+:+<+[+}+|+1+2+3+4+5+6+7+8+    ",
"      9+0+a+b+c+d+e+f+g+h+i+j+k+l+m+n+      ",
"        o+p+q+r+s+t+u+v+w+x+y+z+A+B+        ",
"          C+D+E+F+G+H+I+J+K+L+M+ +          ",
"              N+O+P+Q+R+S+T+ +              ",
"                                            "};
