/* XPM */
static char * up_xpm[] = {
"22 22 274 2",
"  	c None",
". 	c #0881EB",
"+ 	c #1C9DFF",
"@ 	c #1A9DFF",
"# 	c #51BAFF",
"$ 	c #26A2FF",
"% 	c #169DFF",
"& 	c #0B8CFD",
"* 	c #0064B8",
"= 	c #1290FF",
"- 	c #5DC9FF",
"; 	c #73CDFF",
"> 	c #5BBAFF",
", 	c #3AA8FF",
"' 	c #E0F1FF",
") 	c #71A8DE",
"! 	c #33A0FF",
"~ 	c #3FA8FF",
"{ 	c #2DA2FF",
"] 	c #0B92FF",
"^ 	c #005BA7",
"/ 	c #52C5FF",
"( 	c #D6FFFF",
"_ 	c #C2FFFF",
": 	c #7CCEFF",
"< 	c #4CB1FF",
"[ 	c #55B3FF",
"} 	c #FFFFFF",
"| 	c #CED9E1",
"1 	c #329AEE",
"2 	c #4EB1FF",
"3 	c #4EAAFF",
"4 	c #3EA1FF",
"5 	c #1796FF",
"6 	c #0075D5",
"7 	c #59CAFF",
"8 	c #77CEFF",
"9 	c #50B2FF",
"0 	c #36A9FF",
"a 	c #A3D8FC",
"b 	c #FFFFF7",
"c 	c #55A2DC",
"d 	c #50B7FF",
"e 	c #5AB4FF",
"f 	c #54ADFF",
"g 	c #46A1FF",
"h 	c #1C93FF",
"i 	c #006CC7",
"j 	c #199AFF",
"k 	c #EAFFFF",
"l 	c #6CC7FF",
"m 	c #4DB0FF",
"n 	c #47AFFF",
"o 	c #48B2FD",
"p 	c #F8FCFF",
"q 	c #A5C7DD",
"r 	c #4BB1F7",
"s 	c #65C0FF",
"t 	c #5FB7FF",
"u 	c #58AEFF",
"v 	c #45A0FF",
"w 	c #0B89F5",
"x 	c #004682",
"y 	c #81E5FF",
"z 	c #F7FFFF",
"A 	c #82D4FF",
"B 	c #4BAEFF",
"C 	c #4DB2FF",
"D 	c #42B2FF",
"E 	c #88D0FD",
"F 	c #F2F2F0",
"G 	c #56AEE3",
"H 	c #69C7FF",
"I 	c #68C0FF",
"J 	c #61B6FF",
"K 	c #56AAFF",
"L 	c #2D91F7",
"M 	c #0070CD",
"N 	c #0C84F1",
"O 	c #A9F4FF",
"P 	c #9CE6FF",
"Q 	c #51B0FF",
"R 	c #4AAFFF",
"S 	c #4DB6FF",
"T 	c #4CB7FF",
"U 	c #E8F6FD",
"V 	c #99C6DD",
"W 	c #5EC2FB",
"X 	c #71C8FF",
"Y 	c #6ABFFF",
"Z 	c #62B3FF",
"` 	c #4A9FFF",
" .	c #0D81E6",
"..	c #003360",
"+.	c #2CA3FF",
"@.	c #88D3FF",
"#.	c #63BBFF",
"$.	c #4AACFF",
"%.	c #50B4FF",
"&.	c #45B4FF",
"*.	c #8ED4FD",
"=.	c #61B9E4",
"-.	c #72CEFF",
";.	c #71C5FF",
">.	c #6ABAFF",
",.	c #58A8FF",
"'.	c #2388E9",
").	c #005397",
"!.	c #32A8FF",
"~.	c #61B8FF",
"{.	c #4FAEFF",
"].	c #4DAEFF",
"^.	c #4FB5FF",
"/.	c #4FB8FF",
"(.	c #EFF9FD",
"_.	c #A4CCDE",
":.	c #63C5FA",
"<.	c #75CBFF",
"[.	c #6EBEFF",
"}.	c #5EACFF",
"|.	c #328EEC",
"1.	c #0061B0",
"2.	c #30A8FF",
"3.	c #4AAAFF",
"4.	c #4BABFF",
"5.	c #4EAFFF",
"6.	c #40AEFF",
"7.	c #9BD6FE",
"8.	c #FDF8F5",
"9.	c #69B9E3",
"0.	c #70CBFF",
"a.	c #71C0FF",
"b.	c #62B0FF",
"c.	c #388FEB",
"d.	c #0561B1",
"e.	c #2CA5FF",
"f.	c #42A5FF",
"g.	c #47A9FF",
"h.	c #44ACFF",
"i.	c #CBD5DB",
"j.	c #80AEC3",
"k.	c #9AC3D5",
"l.	c #E8EDEE",
"m.	c #AED0E0",
"n.	c #5CBBF9",
"o.	c #70C2FF",
"p.	c #62AFFF",
"q.	c #3A8DE8",
"r.	c #0660AD",
"s.	c #279EFF",
"t.	c #3EA3FF",
"u.	c #38A5FF",
"v.	c #D5F1FF",
"w.	c #D0D6D9",
"x.	c #5492B7",
"y.	c #3F9BCA",
"z.	c #67C2EB",
"A.	c #5DC0F0",
"B.	c #4FB4E2",
"C.	c #95CAE0",
"D.	c #FCF9F5",
"E.	c #FFFFFC",
"F.	c #71B2E1",
"G.	c #62B8FF",
"H.	c #61ABFF",
"I.	c #3287E0",
"J.	c #045AA3",
"K.	c #1C90FC",
"L.	c #3AA1FF",
"M.	c #329CFF",
"N.	c #93CFFF",
"O.	c #FFFAE8",
"P.	c #7DA0B9",
"Q.	c #3289C5",
"R.	c #91D0F7",
"S.	c #F6FFFF",
"T.	c #C0E9FD",
"U.	c #5AC0F3",
"V.	c #68BAE8",
"W.	c #D2E1EB",
"X.	c #EEEBE7",
"Y.	c #65ABF3",
"Z.	c #53A2FF",
"`.	c #267DD4",
" +	c #004780",
".+	c #0A6BBC",
"++	c #31A1FF",
"@+	c #57AEFF",
"#+	c #A8C6E1",
"$+	c #4484BC",
"%+	c #3299E9",
"&+	c #68C4FF",
"*+	c #FFF7F0",
"=+	c #5EA9D4",
"-+	c #6DCEFF",
";+	c #5DB6F6",
">+	c #9CC4E8",
",+	c #9FBCE5",
"'+	c #438FE4",
")+	c #1472C8",
"!+	c #002646",
"~+	c #239BFF",
"{+	c #51A5FE",
"]+	c #3C90EA",
"^+	c #45A6FF",
"/+	c #53B4FF",
"(+	c #54B3FF",
"_+	c #F6FBFD",
":+	c #C3CED4",
"<+	c #51A3DD",
"[+	c #73C8FF",
"}+	c #5AABFF",
"|+	c #609EE9",
"1+	c #337DC9",
"2+	c #02569F",
"3+	c #0762AF",
"4+	c #309FFF",
"5+	c #419FFF",
"6+	c #4CA5FF",
"7+	c #4FAAFF",
"8+	c #43A5FE",
"9+	c #CCE5F8",
"0+	c #95B2C7",
"a+	c #50A7EF",
"b+	c #70BDFF",
"c+	c #68B1FF",
"d+	c #5EA5FC",
"e+	c #3D8BDF",
"f+	c #0F6CC1",
"g+	c #1282E4",
"h+	c #3A9FFF",
"i+	c #479FFF",
"j+	c #4BA2FF",
"k+	c #3A9CFF",
"l+	c #ACD4FD",
"m+	c #6C99C7",
"n+	c #58ABFF",
"o+	c #68B2FF",
"p+	c #5DA4F9",
"q+	c #448DDF",
"r+	c #1D75CA",
"s+	c #00467F",
"t+	c #1179D3",
"u+	c #339CFF",
"v+	c #419BFC",
"w+	c #3795FE",
"x+	c #82BCFD",
"y+	c #FFFFFD",
"z+	c #4381C8",
"A+	c #57A6FF",
"B+	c #549BF2",
"C+	c #3784D8",
"D+	c #116EC2",
"E+	c #00457F",
"F+	c #014E8F",
"G+	c #1680DF",
"H+	c #2690F8",
"I+	c #3F96F3",
"J+	c #A1C1E3",
"K+	c #C3D1E3",
"L+	c #A8BBCF",
"M+	c #2F79CC",
"N+	c #338AE5",
"O+	c #1B78CF",
"P+	c #0359A2",
"Q+	c #002446",
"R+	c #003869",
"S+	c #0058A8",
"T+	c #0057B2",
"U+	c #0056AE",
"V+	c #0059AC",
"W+	c #005EAE",
"X+	c #004A8A",
"Y+	c #002648",
"                                            ",
"              . + @ # $ % & *               ",
"          = - ; > , ' ) ! ~ { ] ^           ",
"        / ( _ : < [ } | 1 2 3 4 5 6         ",
"      7 } ( 8 9 0 a } b c d e f g h i       ",
"    j } k l m n o p } } q r s t u v w x     ",
"    y z A B C D E } } } F G H I J K L M     ",
"  N O P Q R S T U } } } } V W X Y Z `  ...  ",
"  +.@.#.$.%.&.*.} } } } } F =.-.;.>.,.'.).  ",
"  !.~.{.].^./.(.} } } } } } _.:.<.[.}.|.1.  ",
"  2.3.4.5.6.7.} } } } } } } 8.9.0.a.b.c.d.  ",
"  e.f.g.h.C } } } i.j.k.l.} } m.n.o.p.q.r.  ",
"  s.t.f.u.v.} w.x.y.z.A.B.C.D.E.F.G.H.I.J.  ",
"  K.L.M.N.O.P.Q.R.S.} } T.U.V.W.X.Y.Z.`. +  ",
"  .+++@+#+$+%+&+} } } } *+=+-+;+>+,+'+)+!+  ",
"    ~+{+]+^+/+(+_+} } } :+<+[+[.}+|+1+2+    ",
"    3+4+5+6+7+8+9+} } } 0+a+b+c+d+e+f+!+    ",
"      g+h+i+j+k+l+} } } m+n+o+p+q+r+s+      ",
"        t+u+v+w+x+} } y+z+A+B+C+D+E+        ",
"          F+G+H+I+J+K+L+M+N+O+P+Q+          ",
"              R+S+T+U+V+W+X+Y+              ",
"                                            "};
