/* XPM */
static char * window_new_xpm[] = {
"22 22 123 2",
"  	c None",
". 	c #8F8F8F",
"+ 	c #969696",
"@ 	c #9A9A9A",
"# 	c #979797",
"$ 	c #949494",
"% 	c #909090",
"& 	c #8D8D8D",
"* 	c #898989",
"= 	c #868686",
"- 	c #828282",
"; 	c #7F7F7F",
"> 	c #7B7B7B",
", 	c #787878",
"' 	c #747474",
") 	c #717171",
"! 	c #6D6D6D",
"~ 	c #6A6A6A",
"{ 	c #676767",
"] 	c #646464",
"^ 	c #626262",
"/ 	c #5A5A5A",
"( 	c #525252",
"_ 	c #C5C5C5",
": 	c #C1C1C1",
"< 	c #BEBEBE",
"[ 	c #BABABA",
"} 	c #B6B6B6",
"| 	c #B2B2B2",
"1 	c #AEAEAE",
"2 	c #A9A9A9",
"3 	c #A5A5A5",
"4 	c #A0A0A0",
"5 	c #939393",
"6 	c #8E8E8E",
"7 	c #8A8A8A",
"8 	c #858585",
"9 	c #818181",
"0 	c #7A7A7A",
"a 	c #555555",
"b 	c #9C9C9C",
"c 	c #BBBBBB",
"d 	c #B7B7B7",
"e 	c #B3B3B3",
"f 	c #AFAFAF",
"g 	c #ABABAB",
"h 	c #A7A7A7",
"i 	c #A3A3A3",
"j 	c #9F9F9F",
"k 	c #919191",
"l 	c #848484",
"m 	c #7C7C7C",
"n 	c #595959",
"o 	c #DFDFDF",
"p 	c #DDDDDD",
"q 	c #DCDCDC",
"r 	c #DADADA",
"s 	c #D8D8D8",
"t 	c #D6D6D6",
"u 	c #D4D4D4",
"v 	c #D2D2D2",
"w 	c #D0D0D0",
"x 	c #CECECE",
"y 	c #C6C6C6",
"z 	c #C3C3C3",
"A 	c #C0C0C0",
"B 	c #BDBDBD",
"C 	c #686868",
"D 	c #AAAAAA",
"E 	c #FFFFFF",
"F 	c #FEFEFE",
"G 	c #FAFAFA",
"H 	c #F6F6F6",
"I 	c #767676",
"J 	c #F7F7F7",
"K 	c #F0F0F0",
"L 	c #FDFDFD",
"M 	c #F4F4F4",
"N 	c #EBEBEB",
"O 	c #757575",
"P 	c #A8A8A8",
"Q 	c #808080",
"R 	c #F1F1F1",
"S 	c #E6E6E6",
"T 	c #545454",
"U 	c #535353",
"V 	c #E0E0E0",
"W 	c #282828",
"X 	c #737373",
"Y 	c #A6A6A6",
"Z 	c #F2F2F2",
"` 	c #ECECEC",
" .	c #E1E1E1",
"..	c #262626",
"+.	c #252525",
"@.	c #D5D5D5",
"#.	c #494949",
"$.	c #2A2A2A",
"%.	c #F8F8F8",
"&.	c #727272",
"*.	c #A4A4A4",
"=.	c #FBFBFB",
"-.	c #CDCDCD",
";.	c #232323",
">.	c #FCFCFC",
",.	c #EFEFEF",
"'.	c #E8E8E8",
").	c #404040",
"!.	c #1F1F1F",
"~.	c #A2A2A2",
"{.	c #7D7D7D",
"].	c #B5B5B5",
"^.	c #414141",
"/.	c #A1A1A1",
"(.	c #5C5C5C",
"_.	c #8C8C8C",
":.	c #9E9E9E",
"<.	c #E7E7E7",
"[.	c #878787",
"}.	c #797979",
"|.	c #6C6C6C",
"1.	c #6E6E6E",
"2.	c #707070",
"                                            ",
". + @ # $ % & * = - ; > , ' ) ! ~ { ] ^ / ( ",
"+ _ : < [ } | 1 2 3 4 . # 5 6 7 8 9 9 9 0 a ",
"b : < c d e f g h i j 0 + k & * l 9 9 9 m n ",
"i o p q r s t u v w x * y _ _ z A < B B d C ",
"D E E E E E E E F G H $ H G F E E E E E E I ",
"2 E E E E E E E F J K ; K J F E E E E E E I ",
"2 E E E E E E E L M N ~ N M L E E E E E E O ",
"P E E E E E E E Q R S T S R Q E E E E E E ' ",
"h E E E E E F G J U V W V U J G F E E E E X ",
"Y E E E E F G Z `  ...+... .` Z G F E E E X ",
"3 E E R @.Y - { #.$...%...$.#.{ - Y @.R E &.",
"*.E F =.J Z `  .-.} ..;...} -. .` Z J =.F ) ",
"i E >.J ,.'.V @.: ).b !.b ).: @.V '.,.J >.) ",
"~.E F =.J Z `  .{.].P ^.P ].{. .` Z J =.F ) ",
"/.E E F L >.J N q -.: (.: -.q N J >.L F E ) ",
"/.E E E E F G R N  .t I t  .N R G F E E E ) ",
"j E E E E E L G J `  ._. .` J G L E E E E ) ",
":.E E E E E E E >.R <.*.<.R >.E E E E E E ) ",
"l # $ k 6 7 [.l ; }.&.(.|.1.2.) ) ) ) ) ) n ",
"                                            ",
"                                            "};
