/* XPM */
static char *cap1[]={
"92 145 59 1",
". c None",
"E c #2a2a2a",
"b c #2c2c2c",
"# c #2e2e2e",
"c c #303030",
"a c #323232",
"g c #343434",
"F c #353535",
"e c #363636",
"G c #373737",
"d c #383838",
"H c #393939",
"i c #3a3a3a",
"I c #3b3b3b",
"f c #3c3c3c",
"J c #3d3d3d",
"j c #3e3e3e",
"K c #404040",
"l c #414141",
"L c #424242",
"h c #434343",
"M c #444444",
"m c #454545",
"N c #464646",
"k c #474747",
"O c #484848",
"p c #494949",
"n c #4b4b4b",
"q c #4d4d4d",
"s c #4f4f4f",
"o c #515151",
"t c #535353",
"r c #565656",
"v c #585858",
"w c #5a5a5a",
"u c #5c5c5c",
"z c #5e5e5e",
"x c #606060",
"P c #616161",
"A c #626262",
"Q c #636363",
"y c #646464",
"R c #656565",
"S c #676767",
"B c #686868",
"T c #696969",
"C c #6b6b6b",
"U c #6c6c6c",
"4 c #6d6d6d",
"V c #6e6e6e",
"D c #6f6f6f",
"W c #707070",
"X c #727272",
"Y c #747474",
"Z c #777777",
"0 c #797979",
"1 c #7b7b7b",
"2 c #7d7d7d",
"3 c #808080",
"............................................................................................",
"............................................................................................",
".....................................############...........................................",
"...........................##########aaaaaaaaaaaa##########.................................",
"......................bb###caaaaaaaaaddddddddddddaaaaaaaaac###bb............................",
"...................b####aaaaeddddddddffffffffffffddddddddeaaaa####b.........................",
"................b###caaagddddffffffffhhhhhhhhhhhhffffffffddddgaaac###b......................",
"..............b##aaaaedddifffjhhhhhhhkkkkkkkkkkkkhhhhhhhjfffidddeaaaa##b....................",
"............b##aagedddfffflhhhmkkkkkknnnnnnnnnnnnkkkkkkmhhhlffffdddegaa##b..................",
"..........b##aageddiffjlhhhkkkknnnnnnoooooooooooonnnnnnkkkkhhhhjffiddegaa##b................",
".........b#cageddiffjlhmkkkpnnnqooooorrrrrrrrrrrroooooqnnnpkkkmhljffiddegac#b...............",
".......b##cagediffjlhhmkpnnnsoootrrrruuuuuuuuuuuurrrrtooosnnnpkmhhljffidegac##b.............",
"......b#caagedifjlhhmkkpnqsotrrrvwuuuxxxxxxxxxxxxuuuwvrrrtosqnpkkmhhljfidegaac#b............",
".....b##cagedifjlhhkkpnnsootrvwuuuxxxxyyyyyyyyyyxxxxuuuwvrtoosnnpkkhhljfidegac##b...........",
".....b#cagedifjlhmkpnnqsotrrvuuzxxAyyyBBCCCCCCBByyyAxxzuuvrrtosqnnpkmhljfidegac#b...........",
"....b#cagedifjlhmkkpnqsotrvwuuxxAyyBCCCCDDDDDDCCCCByyAxxuuwvrtosqnpkkmhljfidegac#b..........",
"...EEEEEEEEEEEEEEEEEEEEEEEEEEEEEEEEEEEEEEEEEEEEEEEEEEEEEEEEEEEEEEEEEEEEEEEEEEEEEEEE.........",
"...Eb#caFGHIJKLMNOnqsotrvwuzPQRSTUVWXYZ0123210ZYXWVUTSRQPzuwvrtosqnONMLKJIHGFac#bEE.........",
"...Eb#caFGHIJKLMNOnqsotrvwuzPQRSTUVWXYZ0123210ZYXWVUTSRQPzuwvrtosqnONMLKJIHGFac#bEE.........",
"...Eb#caFGHIJKLMNOnqsotrvwuzPQRSTUVWXYZ0123210ZYXWVUTSRQPzuwvrtosqnONMLKJIHGFac#bEE.........",
"...Eb#caFGHIJKLMNOnqsotrvwuzPQRSTUVWXYZ0123210ZYXWVUTSRQPzuwvrtosqnONMLKJIHGFac#bEE.........",
"...Eb#caFGHIJKLMNOnqsotrvwuzPQRSTUVWXYZ0123210ZYXWVUTSRQPzuwvrtosqnONMLKJIHGFac#bEE.........",
"...Eb#caFGHIJKLMNOnqsotrvwuzPQRSTUVWXYZ0123210ZYXWVUTSRQPzuwvrtosqnONMLKJIHGFac#bEE.........",
"...Eb#caFGHIJKLMNOnqsotrvwuzPQRSTUVWXYZ0123210ZYXWVUTSRQPzuwvrtosqnONMLKJIHGFac#bEE.........",
"...Eb#caFGHIJKLMNOnqsotrvwuzPQRSTUVWXYZ0123210ZYXWVUTSRQPzuwvrtosqnONMLKJIHGFac#bEE.........",
"...Eb#caFGHIJKLMNOnqsotrvwuzPQRSTUVWXYZ0123210ZYXWVUTSRQPzuwvrtosqnONMLKJIHGFac#bEE.........",
"...Eb#caFGHIJKLMNOnqsotrvwuzPQRSTUVWXYZ0123210ZYXWVUTSRQPzuwvrtosqnONMLKJIHGFac#bEE.........",
"...Eb#caFGHIJKLMNOnqsotrvwuzPQRSTUVWXYZ0123210ZYXWVUTSRQPzuwvrtosqnONMLKJIHGFac#bEE.........",
"...Eb#caFGHIJKLMNOnqsotrvwuzPQRSTUVWXYZ0123210ZYXWVUTSRQPzuwvrtosqnONMLKJIHGFac#bEE.........",
"...Eb#caFGHIJKLMNOnqsotrvwuzPQRSTUVWXYZ0123210ZYXWVUTSRQPzuwvrtosqnONMLKJIHGFac#bEE.........",
"...Eb#caFGHIJKLMNOnqsotrvwuzPQRSTUVWXYZ0123210ZYXWVUTSRQPzuwvrtosqnONMLKJIHGFac#bEE.........",
"...Eb#caFGHIJKLMNOnqsotrvwuzPQRSTUVWXYZ0123210ZYXWVUTSRQPzuwvrtosqnONMLKJIHGFac#bEE.........",
"...Eb#caFGHIJKLMNOnqsotrvwuzPQRSTUVWXYZ0123210ZYXWVUTSRQPzuwvrtosqnONMLKJIHGFac#bEE.........",
"...Eb#caFGHIJKLMNOnqsotrvwuzPQRSTUVWXYZ0123210ZYXWVUTSRQPzuwvrtosqnONMLKJIHGFac#bEE.........",
"...Eb#caFGHIJKLMNOnqsotrvwuzPQRSTUVWXYZ0123210ZYXWVUTSRQPzuwvrtosqnONMLKJIHGFac#bEE.........",
"...Eb#caFGHIJKLMNOnqsotrvwuzPQRSTUVWXYZ0123210ZYXWVUTSRQPzuwvrtosqnONMLKJIHGFac#bEE.........",
"...Eb#caFGHIJKLMNOnqsotrvwuzPQRSTUVWXYZ0123210ZYXWVUTSRQPzuwvrtosqnONMLKJIHGFac#bEE.........",
"...Eb#caFGHIJKLMNOnqsotrvwuzPQRSTUVWXYZ0123210ZYXWVUTSRQPzuwvrtosqnONMLKJIHGFac#bEE.........",
"...Eb#caFGHIJKLMNOnqsotrvwuzPQRSTUVWXYZ0123210ZYXWVUTSRQPzuwvrtosqnONMLKJIHGFac#bEE.........",
"...Eb#caFGHIJKLMNOnqsotrvwuzPQRSTUVWXYZ0123210ZYXWVUTSRQPzuwvrtosqnONMLKJIHGFac#bEE.........",
"...Eb#caFGHIJKLMNOnqsotrvwuzPQRSTUVWXYZ0123210ZYXWVUTSRQPzuwvrtosqnONMLKJIHGFac#bEE.........",
"...Eb#caFGHIJKLMNOnqsotrvwuzPQRSTUVWXYZ0123210ZYXWVUTSRQPzuwvrtosqnONMLKJIHGFac#bEE.........",
"...Eb#caFGHIJKLMNOnqsotrvwuzPQRSTUVWXYZ0123210ZYXWVUTSRQPzuwvrtosqnONMLKJIHGFac#bEE.........",
"...Eb#caFGHIJKLMNOnqsotrvwuzPQRSTUVWXYZ0123210ZYXWVUTSRQPzuwvrtosqnONMLKJIHGFac#bEE.........",
"...Eb#caFGHIJKLMNOnqsotrvwuzPQRSTUVWXYZ0123210ZYXWVUTSRQPzuwvrtosqnONMLKJIHGFac#bEE.........",
"...Eb#caFGHIJKLMNOnqsotrvwuzPQRSTUVWXYZ0123210ZYXWVUTSRQPzuwvrtosqnONMLKJIHGFac#bEE.........",
"...Eb#caFGHIJKLMNOnqsotrvwuzPQRSTUVWXYZ0123210ZYXWVUTSRQPzuwvrtosqnONMLKJIHGFac#bEE.........",
"...Eb#caFGHIJKLMNOnqsotrvwuzPQRSTUVWXYZ0123210ZYXWVUTSRQPzuwvrtosqnONMLKJIHGFac#bEE.........",
"...Eb#caFGHIJKLMNOnqsotrvwuzPQRSTUVWXYZ0123210ZYXWVUTSRQPzuwvrtosqnONMLKJIHGFac#bEE.........",
"...Eb#caFGHIJKLMNOnqsotrvwuzPQRSTUVWXYZ0123210ZYXWVUTSRQPzuwvrtosqnONMLKJIHGFac#bEE.........",
"...Eb#caFGHIJKLMNOnqsotrvwuzPQRSTUVWXYZ0123210ZYXWVUTSRQPzuwvrtosqnONMLKJIHGFac#bEE.........",
"...Eb#caFGHIJKLMNOnqsotrvwuzPQRSTUVWXYZ0123210ZYXWVUTSRQPzuwvrtosqnONMLKJIHGFac#bEE.........",
"...Eb#caFGHIJKLMNOnqsotrvwuzPQRSTUVWXYZ0123210ZYXWVUTSRQPzuwvrtosqnONMLKJIHGFac#bEE.........",
"...Eb#caFGHIJKLMNOnqsotrvwuzPQRSTUVWXYZ0123210ZYXWVUTSRQPzuwvrtosqnONMLKJIHGFac#bEE.........",
"...Eb#caFGHIJKLMNOnqsotrvwuzPQRSTUVWXYZ0123210ZYXWVUTSRQPzuwvrtosqnONMLKJIHGFac#bEE.........",
"...Eb#caFGHIJKLMNOnqsotrvwuzPQRSTUVWXYZ0123210ZYXWVUTSRQPzuwvrtosqnONMLKJIHGFac#bEE.........",
"...Eb#caFGHIJKLMNOnqsotrvwuzPQRSTUVWXYZ0123210ZYXWVUTSRQPzuwvrtosqnONMLKJIHGFac#bEE.........",
"...Eb#caFGHIJKLMNOnqsotrvwuzPQRSTUVWXYZ0123210ZYXWVUTSRQPzuwvrtosqnONMLKJIHGFac#bEE.........",
"...Eb#caFGHIJKLMNOnqsotrvwuzPQRSTUVWXYZ0123210ZYXWVUTSRQPzuwvrtosqnONMLKJIHGFac#bEE.........",
"...Eb#caFGHIJKLMNOnqsotrvwuzPQRSTUVWXYZ0123210ZYXWVUTSRQPzuwvrtosqnONMLKJIHGFac#bEE.........",
"...Eb#caFGHIJKLMNOnqsotrvwuzPQRSTUVWXYZ0123210ZYXWVUTSRQPzuwvrtosqnONMLKJIHGFac#bEE.........",
"...Eb#caFGHIJKLMNOnqsotrvwuzPQRSTUVWXYZ0123210ZYXWVUTSRQPzuwvrtosqnONMLKJIHGFac#bEE.........",
"...Eb#caFGHIJKLMNOnqsotrvwuzPQRSTUVWXYZ0123210ZYXWVUTSRQPzuwvrtosqnONMLKJIHGFac#bEE.........",
"...Eb#caFGHIJKLMNOnqsotrvwuzPQRSTUVWXYZ0123210ZYXWVUTSRQPzuwvrtosqnONMLKJIHGFac#bEE.........",
"...Eb#caFGHIJKLMNOnqsotrvwuzPQRSTUVWXYZ0123210ZYXWVUTSRQPzuwvrtosqnONMLKJIHGFac#bEE.........",
"...Eb#caFGHIJKLMNOnqsotrvwuzPQRSTUVWXYZ0123210ZYXWVUTSRQPzuwvrtosqnONMLKJIHGFac#bEE.........",
"...Eb#caFGHIJKLMNOnqsotrvwuzPQRSTUVWXYZ0123210ZYXWVUTSRQPzuwvrtosqnONMLKJIHGFac#bEE.........",
"...Eb#caFGHIJKLMNOnqsotrvwuzPQRSTUVWXYZ0123210ZYXWVUTSRQPzuwvrtosqnONMLKJIHGFac#bEE.........",
"...Eb#caFGHIJKLMNOnqsotrvwuzPQRSTUVWXYZ0123210ZYXWVUTSRQPzuwvrtosqnONMLKJIHGFac#bEE.........",
"...Eb#caFGHIJKLMNOnqsotrvwuzPQRSTUVWXYZ0123210ZYXWVUTSRQPzuwvrtosqnONMLKJIHGFac#bEE.........",
"...Eb#caFGHIJKLMNOnqsotrvwuzPQRSTUVWXYZ0123210ZYXWVUTSRQPzuwvrtosqnONMLKJIHGFac#bEE.........",
"...Eb#caFGHIJKLMNOnqsotrvwuzPQRSTUVWXYZ0123210ZYXWVUTSRQPzuwvrtosqnONMLKJIHGFac#bEE.........",
"...Eb#caFGHIJKLMNOnqsotrvwuzPQRSTUVWXYZ0123210ZYXWVUTSRQPzuwvrtosqnONMLKJIHGFac#bEE.........",
"...Eb#caFGHIJKLMNOnqsotrvwuzPQRSTUVWXYZ0123210ZYXWVUTSRQPzuwvrtosqnONMLKJIHGFac#bEE.........",
"...Eb#caFGHIJKLMNOnqsotrvwuzPQRSTUVWXYZ0123210ZYXWVUTSRQPzuwvrtosqnONMLKJIHGFac#bEE.........",
"...Eb#caFGHIJKLMNOnqsotrvwuzPQRSTUVWXYZ0123210ZYXWVUTSRQPzuwvrtosqnONMLKJIHGFac#bEE.........",
"...Eb#caFGHIJKLMNOnqsotrvwuzPQRSTUVWXYZ0123210ZYXWVUTSRQPzuwvrtosqnONMLKJIHGFac#bEE.........",
"...Eb#caFGHIJKLMNOnqsotrvwuzPQRSTUVWXYZ0123210ZYXWVUTSRQPzuwvrtosqnONMLKJIHGFac#bEE.........",
"...Eb#caFGHIJKLMNOnqsotrvwuzPQRSTUVWXYZ0123210ZYXWVUTSRQPzuwvrtosqnONMLKJIHGFac#bEE.........",
"...Eb#caFGHIJKLMNOnqsotrvwuzPQRSTUVWXYZ0123210ZYXWVUTSRQPzuwvrtosqnONMLKJIHGFac#bEE.........",
"...Eb#caFGHIJKLMNOnqsotrvwuzPQRSTUVWXYZ0123210ZYXWVUTSRQPzuwvrtosqnONMLKJIHGFac#bEE.........",
"...Eb#caFGHIJKLMNOnqsotrvwuzPQRSTUVWXYZ0123210ZYXWVUTSRQPzuwvrtosqnONMLKJIHGFac#bEE.........",
"...Eb#caFGHIJKLMNOnqsotrvwuzPQRSTUVWXYZ0123210ZYXWVUTSRQPzuwvrtosqnONMLKJIHGFac#bEE.........",
"...Eb#caFGHIJKLMNOnqsotrvwuzPQRSTUVWXYZ0123210ZYXWVUTSRQPzuwvrtosqnONMLKJIHGFac#bEE.........",
"...Eb#caFGHIJKLMNOnqsotrvwuzPQRSTUVWXYZ0123210ZYXWVUTSRQPzuwvrtosqnONMLKJIHGFac#bEE.........",
"...Eb#caFGHIJKLMNOnqsotrvwuzPQRSTUVWXYZ0123210ZYXWVUTSRQPzuwvrtosqnONMLKJIHGFac#bEE.........",
"...Eb#caFGHIJKLMNOnqsotrvwuzPQRSTUVWXYZ0123210ZYXWVUTSRQPzuwvrtosqnONMLKJIHGFac#bEE.........",
"...Eb#caFGHIJKLMNOnqsotrvwuzPQRSTUVWXYZ0123210ZYXWVUTSRQPzuwvrtosqnONMLKJIHGFac#bEE.........",
"...Eb#caFGHIJKLMNOnqsotrvwuzPQRSTUVWXYZ0123210ZYXWVUTSRQPzuwvrtosqnONMLKJIHGFac#bEE.........",
"...Eb#caFGHIJKLMNOnqsotrvwuzPQRSTUVWXYZ0123210ZYXWVUTSRQPzuwvrtosqnONMLKJIHGFac#bEE.........",
"...Eb#caFGHIJKLMNOnqsotrvwuzPQRSTUVWXYZ0123210ZYXWVUTSRQPzuwvrtosqnONMLKJIHGFac#bEE.........",
"...Eb#caFGHIJKLMNOnqsotrvwuzPQRSTUVWXYZ0123210ZYXWVUTSRQPzuwvrtosqnONMLKJIHGFac#bEE.........",
"...Eb#caFGHIJKLMNOnqsotrvwuzPQRSTUVWXYZ0123210ZYXWVUTSRQPzuwvrtosqnONMLKJIHGFac#bEE.........",
"...Eb#caFGHIJKLMNOnqsotrvwuzPQRSTUVWXYZ0123210ZYXWVUTSRQPzuwvrtosqnONMLKJIHGFac#bEE.........",
"...Eb#caFGHIJKLMNOnqsotrvwuzPQRSTUVWXYZ0123210ZYXWVUTSRQPzuwvrtosqnONMLKJIHGFac#bEE.........",
"...Eb#caFGHIJKLMNOnqsotrvwuzPQRSTUVWXYZ0123210ZYXWVUTSRQPzuwvrtosqnONMLKJIHGFac#bEE.........",
"...Eb#caFGHIJKLMNOnqsotrvwuzPQRSTUVWXYZ0123210ZYXWVUTSRQPzuwvrtosqnONMLKJIHGFac#bEE.........",
"...Eb#caFGHIJKLMNOnqsotrvwuzPQRSTUVWXYZ0123210ZYXWVUTSRQPzuwvrtosqnONMLKJIHGFac#bEE.........",
"...Eb#caFGHIJKLMNOnqsotrvwuzPQRSTUVWXYZ0123210ZYXWVUTSRQPzuwvrtosqnONMLKJIHGFac#bEE.........",
"...Eb#caFGHIJKLMNOnqsotrvwuzPQRSTUVWXYZ0123210ZYXWVUTSRQPzuwvrtosqnONMLKJIHGFac#bEE.........",
"...Eb#caFGHIJKLMNOnqsotrvwuzPQRSTUVWXYZ0123210ZYXWVUTSRQPzuwvrtosqnONMLKJIHGFac#bEE.........",
"...Eb#caFGHIJKLMNOnqsotrvwuzPQRSTUVWXYZ0123210ZYXWVUTSRQPzuwvrtosqnONMLKJIHGFac#bEE.........",
"...Eb#caFGHIJKLMNOnqsotrvwuzPQRSTUVWXYZ0123210ZYXWVUTSRQPzuwvrtosqnONMLKJIHGFac#bEE.........",
"...Eb#caFGHIJKLMNOnqsotrvwuzPQRSTUVWXYZ0123210ZYXWVUTSRQPzuwvrtosqnONMLKJIHGFac#bEE.........",
"...Eb#caFGHIJKLMNOnqsotrvwuzPQRSTUVWXYZ0123210ZYXWVUTSRQPzuwvrtosqnONMLKJIHGFac#bEE.........",
"...Eb#caFGHIJKLMNOnqsotrvwuzPQRSTUVWXYZ0123210ZYXWVUTSRQPzuwvrtosqnONMLKJIHGFac#bEE.........",
"...Eb#caFGHIJKLMNOnqsotrvwuzPQRSTUVWXYZ0123210ZYXWVUTSRQPzuwvrtosqnONMLKJIHGFac#bEE.........",
"...Eb#caFGHIJKLMNOnqsotrvwuzPQRSTUVWXYZ0123210ZYXWVUTSRQPzuwvrtosqnONMLKJIHGFac#bEE.........",
"...Eb#caFGHIJKLMNOnqsotrvwuzPQRSTUVWXYZ0123210ZYXWVUTSRQPzuwvrtosqnONMLKJIHGFac#bEE.........",
"...Eb#caFGHIJKLMNOnqsotrvwuzPQRSTUVWXYZ0123210ZYXWVUTSRQPzuwvrtosqnONMLKJIHGFac#bEE.........",
"...Eb#caFGHIJKLMNOnqsotrvwuzPQRSTUVWXYZ0123210ZYXWVUTSRQPzuwvrtosqnONMLKJIHGFac#bEE.........",
"...Eb#caFGHIJKLMNOnqsotrvwuzPQRSTUVWXYZ0123210ZYXWVUTSRQPzuwvrtosqnONMLKJIHGFac#bEE.........",
"...Eb#caFGHIJKLMNOnqsotrvwuzPQRSTUVWXYZ0123210ZYXWVUTSRQPzuwvrtosqnONMLKJIHGFac#bEE.........",
"...Eb#caFGHIJKLMNOnqsotrvwuzPQRSTUVWXYZ0123210ZYXWVUTSRQPzuwvrtosqnONMLKJIHGFac#bEE.........",
"...Eb#caFGHIJKLMNOnqsotrvwuzPQRSTUVWXYZ0123210ZYXWVUTSRQPzuwvrtosqnONMLKJIHGFac#bEE.........",
"...Eb#caFGHIJKLMNOnqsotrvwuzPQRSTUVWXYZ0123210ZYXWVUTSRQPzuwvrtosqnONMLKJIHGFac#bEE.........",
"...Eb#caFGHIJKLMNOnqsotrvwuzPQRSTUVWXYZ0123210ZYXWVUTSRQPzuwvrtosqnONMLKJIHGFac#bEE.........",
"...Eb#caFGHIJKLMNOnqsotrvwuzPQRSTUVWXYZ0123210ZYXWVUTSRQPzuwvrtosqnONMLKJIHGFac#bEE.........",
"...Eb#caFGHIJKLMNOnqsotrvwuzPQRSTUVWXYZ0123210ZYXWVUTSRQPzuwvrtosqnONMLKJIHGFac#bEE.........",
"...Eb#caFGHIJKLMNOnqsotrvwuzPQRSTUVWXYZ0123210ZYXWVUTSRQPzuwvrtosqnONMLKJIHGFac#bEE.........",
"...Eb#caFGHIJKLMNOnqsotrvwuzPQRSTUVWXYZ0123210ZYXWVUTSRQPzuwvrtosqnONMLKJIHGFac#bEE.........",
"...Eb#caFGHIJKLMNOnqsotrvwuzPQRSTUVWXYZ0123210ZYXWVUTSRQPzuwvrtosqnONMLKJIHGFac#bEE.........",
"...Eb#caFGHIJKLMNOnqsotrvwuzPQRSTUVWXYZ0123210ZYXWVUTSRQPzuwvrtosqnONMLKJIHGFac#bEE.........",
"...Eb#caFGHIJKLMNOnqsotrvwuzPQRSTUVWXYZ0123210ZYXWVUTSRQPzuwvrtosqnONMLKJIHGFac#bEE.........",
"...Eb#caFGHIJKLMNOnqsotrvwuzPQRSTUVWXYZ0123210ZYXWVUTSRQPzuwvrtosqnONMLKJIHGFac#bEE.........",
"...Eb#caFGHIJKLMNOnqsotrvwuzPQRSTUVWXYZ0123210ZYXWVUTSRQPzuwvrtosqnONMLKJIHGFac#bEE.........",
"...Eb#caFGHIJKLMNOnqsotrvwuzPQRSTUVWXYZ0123210ZYXWVUTSRQPzuwvrtosqnONMLKJIHGFac#bEE.........",
"...Eb#caFGHIJKLMNOnqsotrvwuzPQRSTUVWXYZ0123210ZYXWVUTSRQPzuwvrtosqnONMLKJIHGFac#bEE.........",
"...EEEEEEEEEEEEEEEEEEEEEEEEEEEEEEEEEEEEEEEEEEEEEEEEEEEEEEEEEEEEEEEEEEEEEEEEEEEEEEEE.........",
"....b#cagedifjlhmkkpnqsotrvwuuxxAyyBCCCC4DDDD4CCCCByyAxxuuwvrtosqnpkkmhljfidegac#b..........",
".....b#cagedifjlhmkpnnqsotrrvuuzxxAyyyBBCCCCCCBByyyAxxzuuvrrtosqnnpkmhljfidegac#b...........",
".....b##cagedifjlhhkkpnnsootrvwuuuxxxxyyyyyyyyyyxxxxuuuwvrtoosnnpkkhhljfidegac##b...........",
"......b#caagedifjllhmkknnqsoorrrvwuuuxxxxxxxxxxxxuuuwvrrroosqnnkkmhhljfidegaac#b............",
".......b##cagediffjlhhmkpnnnsoootrrrruuuuuuuuuuuurrrrtooosnnnpkmhhljffidegac##b.............",
".........b#cageddiffjlhmkkkpnnnqooooorrrrrrrrrrrroooooqnnnpkkkmhljffiddegac#b...............",
"..........b##aageddiffjlhhhkkkknnnnnnoooooooooooonnnnnnkkkkhhhhjffiddegaa##b................",
"............b##aagedddfffflhhhmkkkkkknnnnnnnnnnnnkkkkkkmhhhlffffdddegaa##b..................",
"..............b##aaaaedddifffjhhhhhhhmkkkkkkkkkkmhhhhhhhjfffidddeaaaa##b....................",
"................b###caaagddddffffffffhhhhhhhhhhhhffffffffddddgaaac###b......................",
"...................b####aaaaeddddddddffffffffffffddddddddeaaaa####b.........................",
"......................bb###caaaaaaaaaddddddddddddaaaaaaaaac###bb............................",
"...........................##########aaaaaaaaaaaa##########.................................",
".....................................############...........................................",
"............................................................................................",
"............................................................................................"};
