/* XPM */
static char *cap2[]={
"34 27 4 1",
"# c None",
". c #004000",
"a c #008000",
"b c #00c000",
".#############################.###",
"..###########################..###",
"....#######################....###",
".....#####################.....###",
".aa...###################...aa.###",
".aaa...#################...aaa.###",
".aaaaa...#############...aaaaa.###",
".aaaaaa...###########...aaaaaa.###",
".baaaaaaa..#########..aaaaaaab.###",
".bbbbaaaaa..#######..aaaaabbbb.###",
".bbbbbbbaaaa..###..aaaabbbbbbb.###",
".bbbbbbbbbbaa..#..aabbbbbbbbbb.###",
".bbbbbbbbbbbbb...bbbbbbbbbbbbb.###",
".bbbbbbbbbbaa..#..aabbbbbbbbbb.###",
".bbbbbbbaaaa..###..aaaabbbbbbb.###",
".bbbbaaaaa..#######..aaaaabbbb.###",
".baaaaaaa..#########..aaaaaaab.###",
".aaaaaa...###########...aaaaaa.###",
".aaaaa...#############...aaaaa.###",
".aaa...#################...aaa.###",
".aa...###################...aa.###",
".....#####################.....###",
"....#######################....###",
"..###########################..###",
".#############################.###",
"##################################",
"##################################"};
