/* XPM */
static char *strel2[]={
"15 15 3 1",
". c None",
"a c None",
"# c #005500",
".#.............",
".###...........",
".#####.........",
".#######.......",
".#########.....",
".###########...",
".#############.",
".##############",
".#############.",
".###########...",
".#########.....",
".#######.......",
".#####.........",
".###...........",
".#..........aaa"};
