/* XPM */
static char *deleteItems_xpm[]={
"22 22 104 2",
".# c None",
"Qt c None",
"#t c #7f486d",
"#e c #804870",
"#b c #81496d",
".3 c #824a6e",
".U c #824b6f",
"#m c #835175",
"#j c #844e72",
"#B c #845276",
".9 c #855175",
".D c #864c6d",
".u c #864e71",
".G c #875274",
".Z c #875275",
"#y c #885171",
"#q c #885476",
".T c #8a506f",
"#G c #8a5c80",
"#A c #8a7b85",
".j c #8d5675",
".P c #8e506f",
"#a c #8f5573",
".X c #905875",
".6 c #925b78",
".A c #945a75",
".L c #945e7a",
"#k c #96547f",
"#u c #965483",
".I c #965c77",
"#c c #985a7c",
".f c #985b75",
"#h c #98607d",
".w c #995d77",
".k c #996a86",
"#E c #996a87",
".F c #9e607d",
"#d c #9f5987",
"#l c #9f598a",
".t c #9f637e",
".r c #9f6680",
"#v c #a05a8b",
".g c #a0657c",
".8 c #a36384",
".o c #a77288",
".2 c #a96b87",
".Y c #a97386",
".7 c #aa6a88",
".Q c #ad7b8a",
".1 c #b0748d",
".E c #b27891",
".J c #b48492",
".x c #b98996",
".S c #bf91a0",
".4 c #c2afc2",
".V c #c4b1c4",
"#f c #c4b5c8",
".p c #c7a1ac",
"#i c #c7afbf",
"#F c #c8bdd1",
"#. c #c9bbcd",
"#n c #ccc1d4",
"#H c #cec8d9",
"#w c #d0c9db",
".z c #d1b1b9",
".0 c #d1c6d5",
"#K c #d1cadb",
".N c #d4cad9",
"#C c #d4d0e1",
".M c #d6c1cd",
"#L c #d7d3e2",
".q c #d8bcc3",
".C c #d8c6d0",
".i c #d9cedc",
".s c #dac6cf",
"## c #dac9d3",
".O c #ddcad3",
"#s c #ddced8",
".H c #ddd6e2",
"#J c #ddddea",
"#o c #dedeeb",
"#r c #e2d5dd",
".c c #e2dbe5",
".l c #e2dde7",
".5 c #e3d5dd",
".W c #e3d6dd",
".v c #e3dee9",
".R c #e6d5da",
".B c #e7dae1",
"#z c #e7dce3",
"#g c #e8dde3",
".d c #e8e5ee",
".h c #eadee3",
".m c #ededf5",
"#p c #efe8ec",
".b c #f1e9ed",
"#D c #f1ebee",
".e c #f3ecef",
".K c #f4edef",
"#x c #f5f1f4",
".a c #f6f1f3",
"#I c #f7f3f5",
".n c #f8f4f6",
".y c #ffffff",
"QtQtQtQtQtQtQtQtQtQtQtQtQtQtQtQtQtQtQtQtQtQt",
"QtQtQtQtQt.#.#.#.#QtQtQtQtQtQtQtQtQtQtQtQtQt",
"Qt.#.#.#.#.#.#.#.#.#.#.#.#.#.#.#.#.#.#.#QtQt",
"QtQt.#.#.#.#.a.b.#.#.#.#.#.#.#.c.d.#.#.#.#Qt",
"QtQt.#.#.#.e.f.g.h.#.#.#.#.#.i.j.k.l.m.#.#Qt",
"QtQt.#.#.n.o.p.q.r.s.#.#.#.#.j.q.t.u.v.#.#Qt",
"QtQt.#.#.b.w.x.y.z.A.B.#.C.D.q.E.F.G.H.#.#Qt",
"QtQt.#.#.#.h.I.J.K.p.L.M.j.q.E.F.G.N.#.#.#Qt",
"QtQt.#.#.#.#.O.P.Q.R.S.T.q.E.F.U.V.#.#.#.#Qt",
"QtQt.#.#.#.#.#.W.X.Y.q.q.E.F.Z.0.#.#.#.#.#Qt",
"QtQt.#.#.#.#.#.#.M.T.q.1.2.3.4.#.#.#.#.#.#Qt",
"QtQt.#.#.#.#.#.5.6.q.E.F.7.8.9#..#.#.#.#.#Qt",
"QtQt.#.#.#.####a.q.E.F#b#c.p#d#e#f.#.#.#.#Qt",
"QtQt.#.#.##g#h.q.E.F#b#i#j#k.p#l#m#n#o.#.#Qt",
"QtQt.#.##p.6.q.E.F#q#r.##s#t#u.p#v#m#w.#.#Qt",
"QtQt.#.##x#y.t.F#q#z.#.#.y#A#m#u#u#B#C.#.#Qt",
"QtQt.#.#.##D#E#q#z.#.#.#.#.##F#m#G#H.#.#.#Qt",
"QtQt.#.#.#.##I#p.#.#.#.#.#.##J#K#L.#.#.#.#Qt",
"QtQt.#.#.#.#.#.#.#.#.#.#.#.#.#.#.#.#.#.#.#Qt",
"QtQt.#.#.#.#.#.#.#.#.#.#.#.#.#.#.#.#.#.#.#Qt",
"QtQtQt.#.#.#.#QtQtQtQtQtQtQtQtQtQtQtQtQtQtQt",
"QtQtQtQtQtQtQtQtQtQtQtQtQtQtQtQtQtQtQtQtQtQt"};
