/* XPM */
static char *deleteFrame[]={
"22 22 105 2",
"Qt c None",
"#u c #7f486d",
"#f c #804870",
"#c c #81496d",
".4 c #824a6e",
".V c #824b6f",
"#n c #835175",
"#k c #844e72",
"#C c #845276",
"#. c #855175",
".E c #864c6d",
".w c #864e71",
".H c #875274",
".0 c #875275",
"#z c #885171",
"#r c #885476",
".U c #8a506f",
"#H c #8a5c80",
"#B c #8a7b85",
".u c #8c8087",
".k c #8d5675",
".Q c #8e506f",
".# c #8e8e8e",
"#b c #8f5573",
".Y c #905875",
".7 c #925b78",
".B c #945a75",
".M c #945e7a",
"#l c #96547f",
"#v c #965483",
".J c #965c77",
"#d c #985a7c",
".g c #985b75",
"#i c #98607d",
".y c #995d77",
".l c #996a86",
"#F c #996a87",
".G c #9e607d",
"#e c #9f5987",
"#m c #9f598a",
".v c #9f637e",
".s c #9f6680",
"#w c #a05a8b",
".h c #a0657c",
".9 c #a36384",
".p c #a77288",
".3 c #a96b87",
".Z c #a97386",
".8 c #aa6a88",
".R c #ad7b8a",
".2 c #b0748d",
".F c #b27891",
".K c #b48492",
".z c #b98996",
".T c #bf91a0",
".5 c #c2afc2",
".W c #c4b1c4",
"#g c #c4b5c8",
".q c #c7a1ac",
"#j c #c7afbf",
"#G c #c8bdd1",
"## c #c9bbcd",
"#o c #ccc1d4",
"#I c #cec8d9",
"#x c #d0c9db",
".A c #d1b1b9",
".1 c #d1c6d5",
"#L c #d1cadb",
".O c #d4cad9",
"#D c #d4d0e1",
".N c #d6c1cd",
"#M c #d7d3e2",
".r c #d8bcc3",
".D c #d8c6d0",
".j c #d9cedc",
".t c #dac6cf",
"#a c #dac9d3",
".P c #ddcad3",
"#t c #ddced8",
".I c #ddd6e2",
"#K c #ddddea",
"#p c #dedeeb",
"#s c #e2d5dd",
".d c #e2dbe5",
".m c #e2dde7",
".6 c #e3d5dd",
".X c #e3d6dd",
".x c #e3dee9",
".S c #e6d5da",
".C c #e7dae1",
"#A c #e7dce3",
"#h c #e8dde3",
".e c #e8e5ee",
".i c #eadee3",
".n c #ededf5",
"#q c #efe8ec",
".c c #f1e9ed",
"#E c #f1ebee",
".f c #f3ecef",
".L c #f4edef",
"#y c #f5f1f4",
".b c #f6f1f3",
"#J c #f7f3f5",
".o c #f8f4f6",
".a c #ffffff",
"QtQtQtQtQtQtQtQtQtQtQtQtQtQtQtQtQtQtQtQtQtQt",
"QtQtQtQtQtQtQtQtQtQtQtQtQtQtQtQtQtQtQtQtQtQt",
"QtQtQtQtQtQtQtQtQtQtQtQtQtQtQtQtQtQtQtQtQtQt",
"QtQtQt.#.#.#.#.#.#.#.#.#.#.#.#.#.a.a.a.a.a.a",
"QtQtQt.#.a.a.a.a.a.a.a.a.a.a.a.#.a.a.a.a.a.a",
"QtQtQt.#.a.a.a.a.b.c.a.a.a.a.a.#.a.d.e.a.a.a",
"QtQtQt.#.a.a.a.f.g.h.i.a.a.a.a.#.j.k.l.m.n.a",
"QtQtQt.#.a.a.o.p.q.r.s.t.a.a.a.u.k.r.v.w.x.a",
"QtQtQt.#.a.a.c.y.z.a.A.B.C.a.D.E.r.F.G.H.I.a",
"QtQtQt.#.a.a.a.i.J.K.L.q.M.N.k.r.F.G.H.O.a.a",
"QtQtQt.#.a.a.a.a.P.Q.R.S.T.U.r.F.G.V.W.a.a.a",
"QtQtQt.#.a.a.a.a.a.X.Y.Z.r.r.F.G.0.1.a.a.a.a",
"QtQtQt.#.a.a.a.a.a.a.N.U.r.2.3.4.5.a.a.a.a.a",
"QtQtQt.#.a.a.a.a.a.6.7.r.F.G.8.9#.##.a.a.a.a",
"QtQtQt.#.a.a.a.a#a#b.r.F.G#c#d.q#e#f#g.a.a.a",
"QtQtQt.#.a.a.a#h#i.r.F.G#c#j#k#l.q#m#n#o#p.a",
"QtQtQt.#.a.a#q.7.r.F.G#r#s.a#t#u#v.q#w#n#x.a",
"QtQtQt.#.a.a#y#z.v.G#r#A.a.a.a#B#n#v#v#C#D.a",
"QtQtQt.#.a.a.a#E#F#r#A.a.a.a.a.##G#n#H#I.a.a",
"QtQtQt.#.a.a.a.a#J#q.a.a.a.a.a.##K#L#M.a.a.a",
"QtQtQt.#.#.#.#.#.#.#.#.#.#.#.#.#.a.a.a.a.a.a",
"QtQtQtQtQtQtQtQtQtQtQtQtQtQtQtQtQtQtQtQtQtQt"};
