/* XPM */
static char *deleteFrame_xpm[]={
"22 22 106 2",
".a c None",
"Qt c None",
"#v c #7f486d",
"#g c #804870",
"#d c #81496d",
".5 c #824a6e",
".W c #824b6f",
"#o c #835175",
"#l c #844e72",
"#D c #845276",
"## c #855175",
".F c #864c6d",
".x c #864e71",
".I c #875274",
".1 c #875275",
"#A c #885171",
"#s c #885476",
".V c #8a506f",
"#I c #8a5c80",
"#C c #8a7b85",
".v c #8c8087",
".l c #8d5675",
".R c #8e506f",
".# c #8e8e8e",
"#c c #8f5573",
".Z c #905875",
".8 c #925b78",
".C c #945a75",
".N c #945e7a",
"#m c #96547f",
"#w c #965483",
".K c #965c77",
"#e c #985a7c",
".h c #985b75",
"#j c #98607d",
".z c #995d77",
".m c #996a86",
"#G c #996a87",
".H c #9e607d",
"#f c #9f5987",
"#n c #9f598a",
".w c #9f637e",
".t c #9f6680",
"#x c #a05a8b",
".i c #a0657c",
"#. c #a36384",
".q c #a77288",
".4 c #a96b87",
".0 c #a97386",
".9 c #aa6a88",
".S c #ad7b8a",
".3 c #b0748d",
".G c #b27891",
".L c #b48492",
".A c #b98996",
".U c #bf91a0",
".6 c #c2afc2",
".X c #c4b1c4",
"#h c #c4b5c8",
".r c #c7a1ac",
"#k c #c7afbf",
"#H c #c8bdd1",
"#a c #c9bbcd",
"#p c #ccc1d4",
"#J c #cec8d9",
"#y c #d0c9db",
".B c #d1b1b9",
".2 c #d1c6d5",
"#M c #d1cadb",
".P c #d4cad9",
"#E c #d4d0e1",
".O c #d6c1cd",
"#N c #d7d3e2",
".s c #d8bcc3",
".E c #d8c6d0",
".k c #d9cedc",
".u c #dac6cf",
"#b c #dac9d3",
".Q c #ddcad3",
"#u c #ddced8",
".J c #ddd6e2",
"#L c #ddddea",
"#q c #dedeeb",
"#t c #e2d5dd",
".e c #e2dbe5",
".n c #e2dde7",
".7 c #e3d5dd",
".Y c #e3d6dd",
".y c #e3dee9",
".T c #e6d5da",
".D c #e7dae1",
"#B c #e7dce3",
"#i c #e8dde3",
".f c #e8e5ee",
".j c #eadee3",
".o c #ededf5",
"#r c #efe8ec",
".d c #f1e9ed",
"#F c #f1ebee",
".g c #f3ecef",
".M c #f4edef",
"#z c #f5f1f4",
".c c #f6f1f3",
"#K c #f7f3f5",
".p c #f8f4f6",
".b c #ffffff",
"QtQtQtQtQtQtQtQtQtQtQtQtQtQtQtQtQtQtQtQtQtQt",
"QtQtQtQtQtQtQtQtQtQtQtQtQtQtQtQtQtQtQtQtQtQt",
"QtQt.#.#.#.#.#.#.#.#.#.#.#.#.#.a.a.a.a.a.aQt",
"QtQt.#.b.b.b.b.b.b.b.b.b.b.b.#.a.a.a.a.a.a.a",
"QtQt.#.b.b.b.b.c.d.b.b.b.b.b.#.a.e.f.a.a.a.a",
"QtQt.#.b.b.b.g.h.i.j.b.b.b.b.#.k.l.m.n.o.a.a",
"QtQt.#.b.b.p.q.r.s.t.u.b.b.b.v.l.s.w.x.y.a.a",
"QtQt.#.b.b.d.z.A.b.B.C.D.b.E.F.s.G.H.I.J.a.a",
"QtQt.#.b.b.b.j.K.L.M.r.N.O.l.s.G.H.I.P.a.a.a",
"QtQt.#.b.b.b.b.Q.R.S.T.U.V.s.G.H.W.X.a.a.a.a",
"QtQt.#.b.b.b.b.b.Y.Z.0.s.s.G.H.1.2.a.a.a.a.a",
"QtQt.#.b.b.b.b.b.b.O.V.s.3.4.5.6.a.a.a.a.a.a",
"QtQt.#.b.b.b.b.b.7.8.s.G.H.9#.###a.a.a.a.a.a",
"QtQt.#.b.b.b.b#b#c.s.G.H#d#e.r#f#g#h.a.a.a.a",
"QtQt.#.b.b.b#i#j.s.G.H#d#k#l#m.r#n#o#p#q.a.a",
"QtQt.#.b.b#r.8.s.G.H#s#t.b#u#v#w.r#x#o#y.a.a",
"QtQt.#.b.b#z#A.w.H#s#B.b.b.b#C#o#w#w#D#E.a.a",
"QtQt.#.b.b.b#F#G#s#B.b.b.b.b.##H#o#I#J.a.a.a",
"QtQt.#.b.b.b.b#K#r.b.b.b.b.b.##L#M#N.a.a.a.a",
"QtQt.#.#.#.#.#.#.#.#.#.#.#.#.#.a.a.a.a.a.a.a",
"QtQt.a.a.a.a.a.a.a.a.a.a.a.a.a.a.a.a.a.a.a.a",
"QtQtQt.a.a.a.a.a.a.a.a.a.a.a.a.a.a.a.a.a.a.a"};
