/* XPM */
static char * help_xpm[] = {
"22 22 295 2",
"  	c None",
". 	c #038AF7",
"+ 	c #0EA3FF",
"@ 	c #0AA3FF",
"# 	c #08A0FF",
"$ 	c #059AFF",
"% 	c #008FFF",
"& 	c #0068C2",
"* 	c #119EFF",
"= 	c #50D1FF",
"- 	c #5DC9FF",
"; 	c #72C6FF",
"> 	c #98D3FF",
", 	c #A9D7FF",
"' 	c #9FD2FF",
") 	c #7EC3FF",
"! 	c #3AA4FF",
"~ 	c #129AFF",
"{ 	c #0593FF",
"] 	c #005DAC",
"^ 	c #4FD0FF",
"/ 	c #C7FFFF",
"( 	c #B4FCFF",
"_ 	c #E4F7FF",
": 	c #FFFFFF",
"< 	c #FFFFFD",
"[ 	c #86BEF8",
"} 	c #2193FF",
"| 	c #1297FF",
"1 	c #0076DA",
"2 	c #58D6FF",
"3 	c #C4FFFF",
"4 	c #ECFBFF",
"5 	c #F5F0EE",
"6 	c #AEBFCF",
"7 	c #B9CBD8",
"8 	c #FFFFF7",
"9 	c #FFFFFE",
"0 	c #7EB5E9",
"a 	c #2D97FF",
"b 	c #1997FF",
"c 	c #006CC6",
"d 	c #19A8FF",
"e 	c #D4FFFF",
"f 	c #BDE9FF",
"g 	c #ECE9E7",
"h 	c #3378AD",
"i 	c #3198E3",
"j 	c #359FEB",
"k 	c #6BB2E4",
"l 	c #F8F6F1",
"m 	c #3C95EB",
"n 	c #3C9FFF",
"o 	c #098DFA",
"p 	c #00457F",
"q 	c #81EEFF",
"r 	c #F4FFFF",
"s 	c #73D0FF",
"t 	c #B6D6F5",
"u 	c #F3ECE8",
"v 	c #FFF9F1",
"w 	c #87A5BD",
"x 	c #399CE8",
"y 	c #64C6FF",
"z 	c #60C3FF",
"A 	c #4AB5FD",
"B 	c #E4F1FB",
"C 	c #FFFFFC",
"D 	c #5094D0",
"E 	c #46A6FF",
"F 	c #2794FD",
"G 	c #0070CD",
"H 	c #0C90FF",
"I 	c #A9FBFF",
"J 	c #9BE8FF",
"K 	c #4DAEFF",
"L 	c #41A0F5",
"M 	c #3E93DC",
"N 	c #4594D5",
"O 	c #499EE0",
"P 	c #63C1FF",
"Q 	c #69C5FF",
"R 	c #5BC2FF",
"S 	c #60C4FF",
"T 	c #F6FDFF",
"U 	c #FFFFF9",
"V 	c #4E90C2",
"W 	c #50B0FF",
"X 	c #409EFF",
"Y 	c #0482E8",
"Z 	c #00315C",
"` 	c #2CB0FF",
" .	c #88D9FF",
"..	c #63BAFF",
"+.	c #49A9FF",
"@.	c #4EAFFF",
"#.	c #53B3FF",
"$.	c #58B9FF",
"%.	c #63C0FF",
"&.	c #68C5FF",
"*.	c #5BC3FF",
"=.	c #6CCAFE",
"-.	c #DEF3FE",
";.	c #C5CDD0",
">.	c #4397D4",
",.	c #5DBAFF",
"'.	c #4DA5FF",
").	c #1386EC",
"!.	c #005294",
"~.	c #32B5FF",
"{.	c #61B9FF",
"].	c #4FABFF",
"^.	c #4DABFF",
"/.	c #56B0FF",
"(.	c #5AB5FF",
"_.	c #61BBFF",
":.	c #67C1FF",
"<.	c #5AC1FF",
"[.	c #93D7FE",
"}.	c #FDFEFE",
"|.	c #E6E3E0",
"1.	c #5092B7",
"2.	c #61C1FF",
"3.	c #63BCFF",
"4.	c #51A8FF",
"5.	c #1E89EE",
"6.	c #005FAD",
"7.	c #30B3FF",
"8.	c #4AAAFF",
"9.	c #4CAAFF",
"0.	c #50ACFF",
"a.	c #58B2FF",
"b.	c #5BB4FF",
"c.	c #62BBFF",
"d.	c #5ABEFF",
"e.	c #90D5FD",
"f.	c #D7DADB",
"g.	c #5295B3",
"h.	c #64C8F8",
"i.	c #71CDFF",
"j.	c #65BCFF",
"k.	c #53A9FF",
"l.	c #2088EE",
"m.	c #005FAF",
"n.	c #2CAFFF",
"o.	c #42A5FF",
"p.	c #49A7FF",
"q.	c #51ADFF",
"r.	c #5CB4FF",
"s.	c #5FBAFF",
"t.	c #5BBFFF",
"u.	c #EDF8FE",
"v.	c #DCDEDF",
"w.	c #468DAE",
"x.	c #69CFFA",
"y.	c #7CD9FF",
"z.	c #70C7FF",
"A.	c #64BBFF",
"B.	c #54A8FF",
"C.	c #1F88E9",
"D.	c #005DAB",
"E.	c #27A7FF",
"F.	c #3FA3FF",
"G.	c #49A5FF",
"H.	c #59B1FF",
"I.	c #5CB6FF",
"J.	c #59B7FF",
"K.	c #6CC3FE",
"L.	c #5B96B3",
"M.	c #66CBF9",
"N.	c #7FDFFF",
"O.	c #77D1FF",
"P.	c #6DC4FF",
"Q.	c #61B8FF",
"R.	c #50A3FF",
"S.	c #1680E0",
"T.	c #0057A1",
"U.	c #1C9AFF",
"V.	c #3BA3FF",
"W.	c #45A4FF",
"X.	c #50ABFF",
"Y.	c #58B0FF",
"Z.	c #5CB5FF",
"`.	c #57B7FF",
" +	c #70C3FC",
".+	c #FFFBF6",
"++	c #FEF8F4",
"@+	c #EEEAE7",
"#+	c #54A3CC",
"$+	c #79DCFF",
"%+	c #7CD5FF",
"&+	c #73CAFF",
"*+	c #68BEFF",
"=+	c #5DB1FF",
"-+	c #459BFC",
";+	c #0877D3",
">+	c #0A73CA",
",+	c #37A8FF",
"'+	c #43A2FF",
")+	c #4CA7FF",
"!+	c #55ADFF",
"~+	c #5AB3FF",
"{+	c #5CB8FF",
"]+	c #5BBBFF",
"^+	c #61AADB",
"/+	c #589DC9",
"(+	c #5FA5CD",
"_+	c #63BFF0",
":+	c #75D3FF",
"<+	c #73CCFF",
"[+	c #6CC2FF",
"}+	c #62B6FF",
"|+	c #57A8FF",
"1+	c #318BE9",
"2+	c #006CC5",
"3+	c #002543",
"4+	c #24A1FF",
"5+	c #40A0FF",
"6+	c #49A4FF",
"7+	c #50A8FF",
"8+	c #56AEFF",
"9+	c #52B1FF",
"0+	c #6ABEFE",
"a+	c #5BACE1",
"b+	c #68C8FF",
"c+	c #69C0FF",
"d+	c #62B7FF",
"e+	c #57ABFF",
"f+	c #469AF8",
"g+	c #0F78D2",
"h+	c #00569C",
"i+	c #0768B9",
"j+	c #34A4FF",
"k+	c #439FFF",
"l+	c #4CA5FF",
"m+	c #51AAFF",
"n+	c #4BA9FF",
"o+	c #66B6FC",
"p+	c #4B92CB",
"q+	c #5FBBFF",
"r+	c #60B4FF",
"s+	c #59ABFF",
"t+	c #4B9CFA",
"u+	c #2681DC",
"v+	c #0068C0",
"w+	c #002644",
"x+	c #1485EA",
"y+	c #3AA0FF",
"z+	c #46A0FF",
"A+	c #4BA2FF",
"B+	c #47A3FF",
"C+	c #60B0FF",
"D+	c #FFFFF8",
"E+	c #FFFFF6",
"F+	c #FAF1E9",
"G+	c #478ED2",
"H+	c #57B0FF",
"I+	c #56AAFF",
"J+	c #4C9CF9",
"K+	c #2B84DD",
"L+	c #006FC9",
"M+	c #00457D",
"N+	c #117AD8",
"O+	c #339DFF",
"P+	c #429BFD",
"Q+	c #479EFF",
"R+	c #47A0FF",
"S+	c #428DE0",
"T+	c #3A82CF",
"U+	c #4086D3",
"V+	c #4797F3",
"W+	c #4DA1FF",
"X+	c #4192F0",
"Y+	c #1E7CD6",
"Z+	c #006CC2",
"`+	c #00457E",
" @	c #014F8E",
".@	c #1780DF",
"+@	c #2D94F8",
"@@	c #3896F7",
"#@	c #3A96FB",
"$@	c #3B97FC",
"%@	c #3A96F9",
"&@	c #3790EF",
"*@	c #2583DF",
"=@	c #0973CD",
"-@	c #0058A1",
";@	c #002545",
">@	c #003868",
",@	c #045CA5",
"'@	c #0A6CBF",
")@	c #0B6EC0",
"!@	c #0769BC",
"~@	c #004987",
"{@	c #002548",
"                                            ",
"              . + + @ # $ % &               ",
"          * = - ; > , ' ) ! ~ { ]           ",
"        ^ / ( _ : : : : : < [ } | 1         ",
"      2 : 3 4 : : 5 6 7 8 : 9 0 a b c       ",
"    d : e f : : g h i j k < : l m n o p     ",
"    q r s t u v w x y z A B : C D E F G     ",
"  H I J K L M N O P Q R S T : U V W X Y Z   ",
"  `  ...+.@.#.$.%.&.*.=.-.: : ;.>.,.'.).!.  ",
"  ~.{.].^./.(._.:.<.[.}.: : |.1.2.3.4.5.6.  ",
"  7.8.9.0.a.b.c.d.e.: : : f.g.h.i.j.k.l.m.  ",
"  n.o.p.q.a.r.s.t.u.: : v.w.x.y.z.A.B.C.D.  ",
"  E.F.G.0.H.I.J.K.: : 9 L.M.N.O.P.Q.R.S.T.  ",
"  U.V.W.X.Y.Z.`. +.+++@+#+$+%+&+*+=+-+;+p   ",
"  >+,+'+)+!+~+{+]+^+/+(+_+:+<+[+}+|+1+2+3+  ",
"    4+5+6+7+8+9+0+: : 9 a+b+c+d+e+f+g+h+    ",
"    i+j+k+l+m+n+o+: : 8 p+q+r+s+t+u+v+w+    ",
"      x+y+z+A+B+C+D+E+F+G+H+I+J+K+L+M+      ",
"        N+O+P+Q+R+S+T+U+V+W+X+Y+Z+`+        ",
"           @.@+@@@#@$@%@&@*@=@-@;@          ",
"              >@,@'@)@!@6.~@{@              ",
"                                            "};
