/* XPM */
static char *newFrame_xpm[]={
"22 22 156 2",
".a c None",
"Qt c None",
"#d c #09090a",
"#z c #0a0b0b",
"#o c #0b0b0c",
"#p c #0c0d0e",
"#L c #0e0e0f",
"#B c #0e0f10",
"#M c #0f0f10",
"#C c #111112",
"#N c #111212",
"#Y c #111213",
"#7 c #3d3e41",
"#f c #55585f",
"ac c #56585c",
"#D c #585b61",
"#0 c #5b5d62",
"#W c #5e6064",
".3 c #5f6165",
"#y c #5f6166",
"#b c #626467",
".Y c #677d9e",
"#E c #686c73",
".Q c #748caf",
"ak c #7d8086",
".S c #7e8084",
".6 c #828893",
"az c #8498b9",
"#9 c #878b93",
"#F c #878c97",
".k c #8ba3c4",
"#4 c #95999e",
"ap c #989ca3",
".# c #99afce",
"#x c #9c9ea3",
".J c #a0a4a9",
"ag c #a1a6af",
"#G c #a2abb9",
".0 c #aaaaaa",
"at c #acb1b9",
".P c #aec0d9",
".O c #afc1da",
".X c #b1c3da",
"#H c #b2bccd",
".W c #b3c3da",
".V c #b4c4db",
".N c #b5c5dc",
"#. c #b9c9de",
".9 c #bacadf",
".8 c #bccbdf",
"#k c #bdcce0",
".R c #bfc3c9",
".H c #bfc3ca",
"#j c #c0cde1",
"#i c #c0cfe1",
"#w c #c3c4c5",
".z c #c4d0e3",
".l c #c5d2e4",
"#t c #c8d3e4",
"#T c #c8d4e5",
".7 c #c9d3e4",
"aw c #cbd1da",
"#S c #cbd6e6",
"#R c #ccd7e7",
"#h c #cdd6e7",
"a# c #ced8e7",
".D c #cfd4dc",
".s c #cfd9e8",
".F c #cfdae8",
"#g c #d0d9e9",
"ah c #d1dae8",
"#n c #d2d7e2",
".5 c #d2dbeb",
".U c #d2dde9",
".M c #d3ddea",
"#s c #d4dceb",
".j c #d4deeb",
"#e c #d5deec",
"#r c #d7dfed",
".L c #d7e0ec",
".q c #d8e0ed",
"#q c #d8e0ee",
"ay c #d8e1ed",
"#c c #d9dee7",
".x c #d9dfe7",
".i c #dae1ed",
"#Q c #dae1ee",
"#P c #dae1ef",
".T c #dbe2ec",
".p c #dce2eb",
"a. c #dce3f0",
"#2 c #dce3f1",
".y c #dde4ee",
"#O c #dde4f1",
"ax c #dde5ef",
"as c #dee5ef",
"#1 c #dee5f1",
"am c #dee5f2",
".E c #dee6ef",
"af c #dfe6f2",
".h c #dfe7f0",
".4 c #e0e6f3",
"av c #e0e8f1",
"#8 c #e1e7f3",
"ae c #e1e8f3",
"#Z c #e1e9f4",
".K c #e2e8f1",
"al c #e2e8f4",
"ad c #e3e9f4",
".o c #e4e9f1",
"#K c #e4eaf5",
"#m c #e5e9ef",
".2 c #e5e9f0",
"ao c #e5eaf2",
"aj c #e6ebf1",
".w c #e6ebf3",
"#X c #e6ecf7",
"#v c #e7e9ea",
"#6 c #e7edf7",
".C c #e8edf3",
"ab c #e8edf7",
"#5 c #e8eef8",
"au c #e9edf4",
"aa c #e9eef8",
".g c #eaeff5",
"#J c #eaeff9",
".I c #eaf0f5",
".v c #ecf0f5",
"#V c #ecf1f9",
"#I c #ecf1fa",
"ar c #edf0f4",
".1 c #edf1f3",
".B c #edf1f6",
"#a c #eef0f3",
"ai c #eef0f5",
"#U c #eef3fb",
"#l c #eff2f2",
".f c #eff2f6",
"#3 c #eff4fc",
".e c #f0f2f7",
"an c #f0f3f5",
".n c #f0f3f7",
".G c #f1f3f8",
".A c #f1f4f8",
"## c #f2f4f4",
".u c #f2f4f9",
"aq c #f2f5f7",
".d c #f4f7f9",
".Z c #f6f6f6",
".m c #f7f8fa",
".c c #f7f9fa",
".t c #f8fafb",
"#u c #fafafb",
".b c #fbfbfc",
".r c #fcfcfd",
"#A c #ffffff",
"QtQtQt.#.#.#.#.#.#.#.#.#.#.#.#.a.a.a.a.aQtQt",
"QtQtQt.#.b.c.d.e.f.g.h.i.j.k.l.#.a.a.a.aQtQt",
"QtQtQt.#.b.m.d.n.f.g.o.p.q.k.r.s.#.a.a.aQtQt",
"QtQtQt.#.r.t.c.u.n.v.w.x.y.k.r.r.z.#.a.aQtQt",
"QtQtQt.#.r.c.c.A.n.B.C.D.E.k.r.r.r.F.#.aQtQt",
"QtQtQt.#.r.m.c.G.n.f.w.H.h.k.k.k.k.k.k.kQtQt",
"QtQtQt.#.r.c.d.u.e.n.I.J.K.L.L.M.N.O.P.QQtQt",
"QtQtQt.#.r.d.d.R.n.n.g.S.K.T.U.R.V.W.X.YQtQt",
"QtQtQt.#.r.d.d.Z.0.1.2.3.4.5.6.7.8.9#..YQtQt",
"QtQtQt.#.b.d.d###a#b#c#d#e#f#g#h#i#j#k.YQtQt",
"QtQtQt.#.b.d.d#l#m#n#d#o#p#q#r#s#t.l.z.YQtQt",
"QtQtQt.##u#v#w#x#y#z#o#A#B#C#D#E#F#G#H.YQtQt",
"Qt.aQt.#.b.d.d#I#J#K#L#M#N#O#P#Q#R#S#T.YQtQt",
"QtQtQt.#.b.d.d#U#V#W#X#Y#Z#0#1#2.s#R#R.YQtQt",
"QtQtQt.#.b.d.d#3#4#5#6#7#K#8#9a..sa##S.YQtQt",
"QtQtQt.#.b.d.d.R#Iaaabacadaeafagah.s#R.YQtQt",
"QtQtQt.#.b.d.daiaj.o.Eak.ialafam.F.s#R.YQtQt",
"QtQtQt.#.c.danao.w.E.Eap.i.j.j.Mah.s#R.YQtQt",
"QtQtQt.#.maqar.was.E.Eat.i.j.M.U.sa##S.YQtQt",
"QtQtQt.#.c.nau.waoaoavawax.iay.L.M.U.F.YQtQt",
"QtQtQt.#az.Y.Y.Y.Y.Y.Y.Y.Y.Y.Y.Y.Y.Y.Y.YQtQt",
"QtQtQtQtQtQtQtQtQtQtQtQtQtQtQtQtQtQtQtQtQtQt"};
