/* XPM */
static char *saveCfg_xpm[]={
"22 22 112 2",
".# c None",
"Qt c None",
".R c #3e3e3e",
"#M c #4077ab",
"#z c #426992",
"#t c #457db1",
"#y c #4881b6",
".d c #4db545",
".h c #51b549",
"#c c #525252",
".o c #52b948",
"#I c #535353",
"#P c #547192",
".B c #54bc4a",
".Z c #565656",
"#O c #5684b1",
".u c #56b84e",
".9 c #5a5a5a",
"#q c #5c5c5c",
".H c #5daa5b",
".a c #5e8b60",
"#H c #5f95c9",
".8 c #626262",
".Q c #646464",
".Y c #686868",
"#w c #696969",
".n c #6aec47",
"#b c #6b6b6b",
"#o c #6d9fcf",
".G c #6de54c",
"#B c #6e6e6e",
".A c #6eed4c",
"#i c #6f6f6f",
".c c #71b064",
"#p c #747474",
"#j c #767677",
"#l c #777777",
".t c #77f255",
".g c #7cf658",
"#x c #7eaad5",
"#L c #7fa8d3",
"#K c #84add7",
"#g c #888888",
"#. c #898989",
"#r c #8cb2da",
"#k c #8e8e8e",
"#F c #8eb4db",
".P c #8f8f8f",
"#n c #8fb4da",
".X c #909090",
".7 c #919191",
"#m c #91b6db",
"#S c #94949d",
".6 c #959595",
"#s c #95b7da",
"#N c #979797",
"#G c #97badd",
"#a c #9d9d9d",
".T c #9e9e9e",
"#R c #9f9fa8",
"#h c #a3a3a3",
".4 c #a7a7a7",
"#v c #aaaaaa",
"#e c #acacac",
".5 c #b1b1b1",
"#f c #b4b4b4",
".V c #b5b5b5",
".j c #b6b6b6",
".J c #b8b8b8",
".p c #bababa",
".K c #bdbdbd",
".e c #bfbfbf",
".D c #c0c0c0",
"## c #c2c2c2",
"#A c #c2c2c7",
"#J c #c3c3c3",
".C c #c4c4c4",
"#Q c #c4c4c9",
".I c #c5c5c5",
"#u c #c5c5ca",
".U c #c9c9c9",
"#D c #c9c9cd",
".b c #cbcbcb",
"#T c #cbcbd0",
".i c #cccccc",
".S c #cdcdcd",
".0 c #cecece",
"#C c #ceced3",
"#d c #cfcfcf",
".F c #d1eac9",
".k c #d2d2d2",
".s c #d5edcd",
".f c #d7ead2",
".O c #d9d9d9",
".M c #dbdbdb",
".3 c #dddddd",
".m c #ddedd8",
".z c #ddeed8",
".L c #e0e0e0",
".v c #e4e4e4",
"#E c #e4e4e7",
".1 c #e6e6e6",
".W c #e9e9e9",
".2 c #eaeaea",
".E c #ededed",
".N c #eeeeee",
".l c #f8f8f8",
".y c #f9f9f9",
".r c #fbfbfb",
".x c #fcfcfc",
".w c #fdfdfd",
".q c #fefefe",
"QtQt.#.#.#.#.#.#.#.a.#.#.#.#.#.#.#QtQtQtQtQt",
"QtQt.#.#.#.#.#.#.b.c.d.#.#.#.#.#.#.#QtQtQtQt",
"QtQt.#.#.#.#.#.b.e.f.g.h.#.#.#.#.#QtQtQtQtQt",
"QtQt.#.#.#.#.i.j.k.l.m.n.o.#.#.#.#QtQtQtQtQt",
"QtQt.#.#.#.b.p.k.l.q.r.s.t.u.#.#.#QtQtQtQtQt",
"QtQt.#.#.i.e.e.v.w.x.q.y.z.A.B.#.#QtQtQtQtQt",
"QtQt.#.b.e.e.C.D.v.x.x.l.E.F.G.H.#QtQtQtQtQt",
"QtQt.I.J.K.L.i.e.K.M.N.N.N.O.P.Q.RQtQtQtQtQt",
"QtQt.S.T.L.y.l.U.V.T.S.N.W.X.Y.Z.#QtQtQtQtQt",
"QtQt.#.0.j.1.2.3.4.5.6.D.7.8.9.#.#QtQtQtQtQt",
"QtQt.#.#.S.D.3.6#.###a#.#b#c.#.#.#.#.#QtQtQt",
"QtQt.#.#.##d.p#e#f#g.7.8.Z.#.#.#.#.#.#.#QtQt",
"QtQt.#.#.#.##d#h.P.P#i.Z.##j.#.#.#.#.#.#QtQt",
"QtQt.#.#.#.#.#.i#k.Q#c.#.##l.##m#n#o.#.#.#Qt",
"QtQt.#.#.#.#.#.#.C#p.#.#.##q.0#r#s#t#u.e#vQt",
"QtQt.#.#.#.#.#.#.#.#.#.#.##w.##x#y#z#A.#.#Qt",
"QtQt.#Qt.#.#.#QtQtQtQtQtQt#B.#.##C#D#E.#.#Qt",
"QtQtQtQtQt.#.#.#QtQtQtQtQt#B.#.#.#.#.#.#.#Qt",
"QtQtQtQtQtQtQt.#.#QtQtQtQt#B.##F#G#H.#.#.#Qt",
"QtQtQtQtQtQtQtQtQtQtQtQtQt#I#J#K#L#M#A.5#NQt",
"QtQtQtQtQtQtQtQtQtQtQtQtQt.#.##s#O#P#Q.#.#Qt",
"QtQtQtQtQtQtQtQtQtQtQtQtQt.#.#.##R#S#T.#.#Qt"};
