/* XPM */
static char *saveFrame_xpm[]={
"22 22 31 1",
". c None",
"a c #007905",
"w c #161616",
"c c #3cff00",
"r c #5e5e5e",
"q c #757575",
"B c #858585",
"# c #959595",
"A c #a1a1a1",
"b c #a5a5a5",
"x c #bababa",
"s c #bfbfbf",
"n c #c5c5c5",
"t c #c7c7c7",
"f c #c9ffb8",
"k c #cbcbcb",
"h c #cdcdcd",
"y c #cecece",
"l c #d1d1d1",
"d c #d3d3d3",
"e c #dfdfdf",
"o c #e1e1e1",
"p c #e2e2e2",
"C c #e4e4e4",
"z c #e6e6e6",
"u c #e8e8e8",
"v c #ededed",
"m c #eeeeee",
"j c #f9f9f9",
"i c #fafafa",
"g c #fefefe",
"......................",
"..........#a..........",
".........#bca.........",
"........#defca........",
".......#dbgefca.......",
"......#hbgggefca......",
".....#hbgigggefca.....",
"....#hbgggggggefca....",
"...#hhhbggjggggefca...",
"..#khblhbgggggmmefca..",
".#nkbg#hhbgmmmmmopqqr.",
"#stbugg#hh#mmmmmvqqrw.",
".qbggggg#xbqmmmmqqrw..",
"..qyzzugu#xxqmmqqrw...",
"...quuugrx#xAqqqrw....",
"....quurxrgBAAqrw.....",
".....qoxruBBAqrw......",
"......qCuBBAqrw.......",
".......qBBAqrw........",
"........qAqrw.........",
".........rrw..........",
"..........r..........."};
