/* XPM */
static char * tcimage[] = {
"22 22 325 2",
"  	c None",
". 	c #DDD8D3",
"+ 	c #DBD7D3",
"@ 	c #E4E1DC",
"# 	c #E8E5E0",
"$ 	c #E3DFDA",
"% 	c #E7E3DF",
"& 	c #EDEAE6",
"* 	c #EAE7E3",
"= 	c #E8E5E2",
"- 	c #EDEBE8",
"; 	c #F0EDEB",
"> 	c #EAE6E3",
", 	c #EBE8E5",
"' 	c #F0EEEB",
") 	c #EEEBE8",
"! 	c #EBE7E4",
"~ 	c #EFECE9",
"{ 	c #EAE6E2",
"] 	c #EBE7E3",
"^ 	c #EEEBE6",
"/ 	c #ECE7E1",
"( 	c #DEDBD6",
"_ 	c #DFDCD7",
": 	c #E5E2DE",
"< 	c #E6E3E0",
"[ 	c #E9E5E3",
"} 	c #ECE9E7",
"| 	c #EBE8E6",
"1 	c #EAE8E5",
"2 	c #EEECEA",
"3 	c #ECE9E6",
"4 	c #ECEAE7",
"5 	c #EFEDEA",
"6 	c #ECE9E2",
"7 	c #EBE7E0",
"8 	c #E1DDDB",
"9 	c #E7E4E1",
"0 	c #E3E0DE",
"a 	c #E4E1DE",
"b 	c #E8E5E3",
"c 	c #EAE8E6",
"d 	c #EFEEEB",
"e 	c #EAE7E6",
"f 	c #F0EEED",
"g 	c #EFEDEB",
"h 	c #F0EFED",
"i 	c #EAE7E4",
"j 	c #D1CDC8",
"k 	c #E0DDD7",
"l 	c #E6E2DB",
"m 	c #EAE6E1",
"n 	c #E2DFDC",
"o 	c #E5E2DF",
"p 	c #E7E4E2",
"q 	c #E8E6E4",
"r 	c #D0CAC0",
"s 	c #E7E5E3",
"t 	c #E9E7E5",
"u 	c #EDEAE9",
"v 	c #EEEBEA",
"w 	c #EEEBE9",
"x 	c #EDEAE8",
"y 	c #E1DFDC",
"z 	c #918B7D",
"A 	c #CDCAC5",
"B 	c #E4E1DD",
"C 	c #E8E5E1",
"D 	c #E2DFDD",
"E 	c #ECEAE8",
"F 	c #E6E3E1",
"G 	c #C5BFB2",
"H 	c #BBB4A6",
"I 	c #D9D6D4",
"J 	c #DEDBDA",
"K 	c #E8E5E4",
"L 	c #EFECEB",
"M 	c #EDEBE9",
"N 	c #F1EFEE",
"O 	c #EAE7E5",
"P 	c #E3E1DF",
"Q 	c #9F9A8F",
"R 	c #736D5B",
"S 	c #C4C1BE",
"T 	c #E1DFDD",
"U 	c #E8E4E2",
"V 	c #E5E2E0",
"W 	c #E9E6E4",
"X 	c #E7E4E3",
"Y 	c #EBE9E8",
"Z 	c #D7D3CF",
"` 	c #9D957F",
" .	c #969083",
"..	c #C2C0BD",
"+.	c #D4D2D0",
"@.	c #DFDDDC",
"#.	c #E9E6E5",
"$.	c #D3D0CD",
"%.	c #958F84",
"&.	c #6C6553",
"*.	c #6D6759",
"=.	c #BEBCBA",
"-.	c #D5D2D0",
";.	c #E6E3E2",
">.	c #E7E3E3",
",.	c #EDEBEA",
"'.	c #E6E4E3",
").	c #B2AB9E",
"!.	c #887F6A",
"~.	c #807969",
"{.	c #9A968E",
"].	c #B2AFAB",
"^.	c #C3C1C0",
"/.	c #C6C5C3",
"(.	c #BFBCB7",
"_.	c #9E998F",
":.	c #7C7565",
"<.	c #6A6352",
"[.	c #60594A",
"}.	c #726E66",
"|.	c #B3B1B0",
"1.	c #CDCAC9",
"2.	c #E2DFDE",
"3.	c #E5E2E1",
"4.	c #E3E0DF",
"5.	c #E5E3E2",
"6.	c #DCDAD9",
"7.	c #DDDBDA",
"8.	c #D0CDC9",
"9.	c #A29B8A",
"0.	c #938B7A",
"a.	c #B7B3AA",
"b.	c #ADA99E",
"c.	c #807A67",
"d.	c #706958",
"e.	c #665F4E",
"f.	c #615A49",
"g.	c #5C5646",
"h.	c #5A5344",
"i.	c #575144",
"j.	c #7A7876",
"k.	c #A8A6A4",
"l.	c #D1CECD",
"m.	c #D9D5D5",
"n.	c #8D8C8C",
"o.	c #626262",
"p.	c #797776",
"q.	c #AAA9A7",
"r.	c #808080",
"s.	c #E9E8E6",
"t.	c #CECCC9",
"u.	c #A5A5A5",
"v.	c #E7E7E7",
"w.	c #A5A298",
"x.	c #6A6351",
"y.	c #595344",
"z.	c #4C473A",
"A.	c #464135",
"B.	c #484337",
"C.	c #504F4B",
"D.	c #7A7877",
"E.	c #ACA8A7",
"F.	c #D2CFCE",
"G.	c #E0DDDB",
"H.	c #E8E5E5",
"I.	c #C2C0BF",
"J.	c #777777",
"K.	c #757575",
"L.	c #383837",
"M.	c #76736D",
"N.	c #A09E9C",
"O.	c #C5C1BA",
"P.	c #4A4A4A",
"Q.	c #D2D2D2",
"R.	c #9B9891",
"S.	c #645D4C",
"T.	c #524C3E",
"U.	c #423D32",
"V.	c #3B372C",
"W.	c #2F2D2A",
"X.	c #535151",
"Y.	c #918F8F",
"Z.	c #D9D5D4",
"`.	c #E6E2E1",
" +	c #EEECEB",
".+	c #C3C1C1",
"++	c #434242",
"@+	c #444444",
"#+	c #4E4E4E",
"$+	c #67635B",
"%+	c #807966",
"&+	c #847D68",
"*+	c #989385",
"=+	c #ACAAA6",
"-+	c #AAA8A2",
";+	c #756F60",
">+	c #4A4538",
",+	c #3F3B2F",
"'+	c #332F27",
")+	c #2E2D2D",
"!+	c #6D6B6B",
"~+	c #B0AEAE",
"{+	c #D9D6D6",
"]+	c #E9E6E6",
"^+	c #F8F7F6",
"/+	c #EFEDED",
"(+	c #747474",
"_+	c #525252",
":+	c #6C6B6B",
"<+	c #656259",
"[+	c #655F4D",
"}+	c #736C59",
"|+	c #746C59",
"1+	c #6D6654",
"2+	c #524D40",
"3+	c #474439",
"4+	c #413D31",
"5+	c #3C382C",
"6+	c #262421",
"7+	c #494949",
"8+	c #939292",
"9+	c #D2D0D0",
"0+	c #EEEDED",
"a+	c #F8F7F7",
"b+	c #F9F7F7",
"c+	c #FFFFFF",
"d+	c #E8E8E8",
"e+	c #949391",
"f+	c #6A675E",
"g+	c #504C3F",
"h+	c #504B3C",
"i+	c #5A5444",
"j+	c #595445",
"k+	c #4F4A3C",
"l+	c #3F3B31",
"m+	c #5E574C",
"n+	c #5F5547",
"o+	c #474031",
"p+	c #383228",
"q+	c #343230",
"r+	c #71706F",
"s+	c #B9B9B9",
"t+	c #EAEAEA",
"u+	c #FCFCFC",
"v+	c #FEFEFE",
"w+	c #F0F0EF",
"x+	c #A09E9A",
"y+	c #4E4C46",
"z+	c #292720",
"A+	c #1E1C17",
"B+	c #25231D",
"C+	c #35322C",
"D+	c #4E4B42",
"E+	c #5D5A4E",
"F+	c #494236",
"G+	c #594C3B",
"H+	c #826D51",
"I+	c #8E785C",
"J+	c #8C8986",
"K+	c #B2B2B2",
"L+	c #F3F3F3",
"M+	c #FDFDFD",
"N+	c #E6E5E6",
"O+	c #C4C2C2",
"P+	c #9F9E9D",
"Q+	c #686665",
"R+	c #464543",
"S+	c #3D3C3A",
"T+	c #3C3B38",
"U+	c #383735",
"V+	c #3E3D3D",
"W+	c #515050",
"X+	c #716F6D",
"Y+	c #9D948C",
"Z+	c #D5D3D0",
"`+	c #CDCDCD",
" @	c #797979",
".@	c #A4A4A4",
"+@	c #EDECEC",
"@@	c #DEDBDC",
"#@	c #CECBCB",
"$@	c #B3B1B2",
"%@	c #989697",
"&@	c #888787",
"*@	c #817F80",
"=@	c #828080",
"-@	c #8B8989",
";@	c #9D9C9C",
">@	c #C1BFBF",
",@	c #C8C8C8",
"'@	c #D1D1D1",
")@	c #A0A0A0",
"!@	c #5D5D5D",
"~@	c #DADADA",
"{@	c #FFFEFF",
"]@	c #F2F1F1",
"^@	c #ECE9EA",
"/@	c #E5E3E4",
"(@	c #E5E4E4",
"_@	c #DBDADA",
":@	c #D2D1D2",
"<@	c #CECDCD",
"[@	c #D0CFCF",
"}@	c #D4D3D3",
"|@	c #D3D1D1",
"1@	c #ECEBEB",
"2@	c #DFDFDF",
"3@	c #BFBFBF",
"4@	c #D0D0D0",
"5@	c #E4E4E4",
"6@	c #EFECED",
"7@	c #EEECED",
"8@	c #F3F2F2",
"9@	c #FBFBFB",
"0@	c #F9F9F9",
"a@	c #F7F7F7",
"b@	c #F5F5F5",
"c@	c #EBE9E9",
"d@	c #ECE9E9",
"e@	c #F7F6F6",
"f@	c #FAFAFA",
"g@	c #E0E0E0",
"h@	c #CACACA",
"i@	c #D6D6D6",
"j@	c #F6F6F6",
"                                            ",
". + @ # $ % & * = - ; > , ' ) ! ~ ; { ] ^ / ",
"( _ : = < [ } | 1 - 2 3 4 5 - 3 ) ~ * { 6 7 ",
"8 9 0 a 1 b 9 c d } e f g | - h } i j k l m ",
"n o p q a r o s t u v 2 v 2 w 2 x y z A B C ",
"0 D c E F G H I J K L } M N 2 O P Q R S T U ",
"V W X K Y Z `  ...+.@.c E | #.$.%.&.*.=.-.V ",
";.Y >.X ,.'.).!.~.{.].^./.(._.:.<.[.}.|.1.2.",
"3.4.5.6.4.7.8.9.0.a.b.c.d.e.f.g.h.i.j.k.l.D ",
"2.m.n.o.p.q.r.s.t.u.v.w.x.y.z.A.B.C.D.E.F.G.",
"H.I.J.K.L.M.N.O.q.P.Q.R.S.T.U.V.W.X.Y.I.Z.`.",
" +.+++@+#+$+%+&+*+=+-+;+y.>+,+'+)+!+~+{+]+v ",
"^+/+(+_+:+<+[+}+|+1+e.2+3+4+5+6+7+8+9+0+a+b+",
"c+c+d+e+f+g+h+i+j+k+l+m+n+o+p+q+r+s+t+u+c+c+",
"c+c+v+w+x+y+z+A+B+C+D+E+F+G+H+I+J+K+L+M+v+c+",
"c+c+c+u+N+O+P+Q+R+S+T+U+V+W+X+Y+Z+`+ @.@M+v+",
"c+c+c+v++@@@#@$@%@&@*@=@-@;@$@>@,@'@)@!@~@c+",
"c+c+c+{@]@^@/@(@_@:@<@[@}@|@@@1@2@3@3@4@5@c+",
"c+c+c+v+6@7@8@9@0@a@a@a@b@c@d@e@f@g@h@i@j@a+",
"                                            ",
"                                            ",
"                                            "};
