/* XPM */
static char *tcline[]={
"22 22 2 1",
". c None",
"# c #303030",
"......................",
"......................",
"......................",
"......................",
"......................",
"................##....",
"...............##.....",
"..............##......",
".............##.......",
"............##........",
"...........##.........",
"..........##..........",
".........##...........",
"........##............",
".......##.............",
"......##..............",
".....##...............",
"......................",
"......................",
"......................",
"......................",
"......................"};
