/* XPM */
static char *tcrectangle[]={
"22 22 8 1",
". c None",
"# c #1f1f1f",
"b c #050505",
"a c #040404",
"c c #050505",
"e c #191919",
"d c #2a2a2a",
"f c #c3c3c3",
"......................",
"......................",
"......................",
".#aaaaaaaaaaaaaaaaaa#.",
".bcddddddddddddddddcb.",
".beffffffffffffffffeb.",
".beffffffffffffffffeb.",
".beffffffffffffffffeb.",
".beffffffffffffffffeb.",
".beffffffffffffffffeb.",
".beffffffffffffffffeb.",
".beffffffffffffffffeb.",
".beffffffffffffffffeb.",
".beffffffffffffffffeb.",
".beffffffffffffffffeb.",
".beffffffffffffffffeb.",
".beffffffffffffffffeb.",
".bcddddddddddddddddcb.",
".#aaaaaaaaaaaaaaaaaa#.",
"......................",
"......................",
"......................"};
