/* XPM */
static char *tctext[]={
"22 22 3 1",
"a c None",
". c None",
"# c #000000",
"......................",
"......................",
"......................",
"......................",
"......................",
".......#########......",
"......a#aaa#aaa#......",
"......aaaaa#aaaa......",
"......aaaaa#aaaa......",
".......aaaa#aaaa......",
".......aaaa#aaaa......",
".......aaaa#aaaa......",
".......aaaa#aaaa......",
".......aaaa#aaaa......",
".......aaaa#aaaa......",
".......aaaa#aaaa......",
".......aaaa#aaaa......",
".......aaaaaaaaa......",
"......................",
"...........a..........",
"...........a..........",
"......................"};
